{"glyphs":{":":{"x_min":0,"x_max":344,"ha":344,"o":"m 123 126 q 134 126 142 118 q 149 110 148 99 q 147 88 138 80 q 130 72 119 72 q 108 72 100 80 q 93 88 94 99 q 95 110 104 118 q 112 126 123 126 z m 179 307 q 190 307 198 299 q 205 291 204 280 q 203 269 194 261 q 186 253 175 253 q 164 253 156 261 q 149 269 150 280 q 151 291 160 299 q 168 307 179 307 z"},"$":{"x_min":0,"x_max":469,"ha":469,"o":"m 95 274 q 97 305 118 330 q 139 355 171 374 q 203 393 243 406 q 283 418 322 424 q 362 429 398 427 q 434 425 460 416 q 466 414 468 410 q 469 405 468 400 q 467 396 463 393 q 459 390 454 392 q 421 401 369 397 q 317 393 266 378 q 216 362 178 336 q 141 309 138 272 q 136 251 156 226 q 177 200 202 174 q 228 148 249 124 q 270 99 269 81 q 269 74 263 68 q 257 63 248 58 q 240 54 232 50 q 223 47 218 45 q 202 40 182 37 q 163 34 145 34 q 138 34 127 35 q 116 36 106 39 q 95 42 88 48 q 80 53 80 62 q 80 69 84 74 q 89 79 96 78 q 99 78 104 76 q 109 74 105 69 q 104 68 104 65 q 104 61 114 59 q 125 57 140 57 q 154 57 170 58 q 185 60 198 64 q 210 67 219 72 q 228 77 228 84 q 229 92 219 104 q 209 117 194 132 q 178 146 160 163 q 143 180 128 198 q 112 216 102 236 q 93 255 95 274 z m 285 374 q 268 329 250 276 q 232 222 216 171 l 182 207 q 195 246 209 284 q 223 323 238 359 q 246 362 260 367 q 274 372 285 374 z m 185 66 q 174 64 164 64 q 155 63 142 63 q 147 83 152 104 q 157 126 164 149 q 180 131 199 114 z m 329 476 q 324 468 318 456 q 313 445 307 429 q 294 427 285 425 q 276 423 264 419 q 274 439 283 456 q 292 474 300 486 q 303 490 308 490 q 314 491 320 489 q 325 487 328 484 q 331 480 329 476 z m 177 31 q 175 23 174 17 q 173 11 172 6 q 170 -3 164 -8 q 158 -12 151 -12 q 144 -11 139 -5 q 134 1 135 13 q 135 17 136 20 q 136 24 137 29 q 142 28 156 28 q 170 29 177 31 z"},"?":{"x_min":0,"x_max":425,"ha":425,"o":"m 130 411 q 123 447 136 474 q 148 501 170 518 q 193 534 220 538 q 248 543 272 533 q 296 523 312 497 q 327 471 325 427 q 323 400 310 376 q 298 353 280 330 q 261 308 239 286 q 217 264 196 242 q 176 220 160 198 q 144 175 138 150 q 135 139 128 142 q 121 144 122 152 q 125 181 138 207 q 150 233 168 257 q 185 281 204 304 q 224 327 240 350 q 257 373 268 397 q 280 421 282 447 q 284 486 263 504 q 242 521 216 518 q 191 516 171 493 q 151 470 156 427 q 157 413 154 408 q 150 403 145 402 q 140 402 136 405 q 131 408 130 411 z m 128 89 q 139 86 144 76 q 148 66 143 55 q 138 44 126 38 q 115 32 103 34 q 92 36 88 46 q 83 56 88 67 q 93 78 104 84 q 116 91 128 89 z"},"<":{"x_min":0,"x_max":363,"ha":363,"o":"m 290 324 q 264 316 234 304 q 203 291 176 276 q 149 260 130 241 q 112 222 111 202 q 110 181 126 164 q 141 148 164 135 q 188 122 214 114 q 240 105 259 101 q 265 100 268 96 q 270 92 269 88 q 268 85 264 82 q 260 79 253 81 q 229 86 198 97 q 167 108 140 125 q 113 142 96 164 q 78 186 80 214 q 82 240 100 263 q 118 286 144 306 q 171 325 203 341 q 235 357 265 368 q 273 371 282 372 q 292 373 300 371 q 308 369 313 364 q 318 358 318 349 q 318 334 310 330 q 301 327 290 324 z"},"'":{"x_min":0,"x_max":200,"ha":200,"o":"m 140 603 q 133 585 126 566 q 118 546 113 527 q 111 521 106 519 q 101 517 96 518 q 90 520 87 525 q 84 530 86 538 q 91 557 96 576 q 100 594 108 613 q 111 621 118 622 q 124 624 130 622 q 136 620 140 614 q 143 609 140 603 z"},"=":{"x_min":0,"x_max":370,"ha":370,"o":"m 264 241 q 269 241 271 236 q 273 232 272 227 q 271 222 267 218 q 263 213 257 213 l 95 213 q 89 213 86 218 q 84 224 86 230 q 87 237 91 242 q 95 248 102 248 z m 245 170 q 250 170 252 166 q 254 161 254 156 q 253 151 249 146 q 245 142 239 142 l 76 137 q 70 137 68 142 q 65 147 66 154 q 67 161 71 166 q 75 172 82 172 z"},"a":{"x_min":0,"x_max":344,"ha":344,"o":"m 344 206 q 346 209 350 208 q 355 208 359 205 q 363 202 365 198 q 367 194 364 190 q 353 175 328 143 q 302 111 272 79 q 242 47 212 23 q 181 -1 160 0 q 127 1 121 36 q 119 48 122 64 q 125 80 130 98 q 125 92 120 86 q 115 81 110 76 q 83 47 56 26 q 29 5 7 4 q -40 2 -48 51 q -53 86 -40 127 q -27 168 -2 203 q 24 238 59 262 q 94 285 134 285 q 142 285 152 284 q 161 283 170 280 q 178 277 184 270 q 189 264 189 253 q 189 236 174 228 q 158 220 144 231 q 113 234 86 214 q 59 195 40 166 q 21 136 11 103 q 1 70 4 45 q 5 35 18 41 q 30 47 44 59 q 59 71 72 83 q 85 95 87 98 q 122 134 155 180 q 188 226 211 272 q 221 278 232 276 q 244 275 252 270 q 260 265 264 256 q 267 248 261 241 q 252 224 237 196 q 222 169 208 140 q 193 110 182 83 q 172 56 173 40 q 195 48 219 68 q 243 88 266 112 q 290 137 310 162 q 330 187 344 206 z"},"L":{"x_min":0,"x_max":299,"ha":299,"o":"m 366 -24 q 370 -22 374 -24 q 378 -26 380 -30 q 382 -35 382 -40 q 383 -44 379 -46 q 360 -56 340 -60 q 321 -64 301 -64 q 274 -64 247 -60 q 220 -55 194 -49 q 167 -43 140 -38 q 113 -32 86 -30 q 83 -36 74 -38 q 66 -41 57 -40 q 48 -39 42 -36 q 35 -33 35 -28 q 37 2 46 57 q 54 112 68 180 q 82 247 101 319 q 120 391 143 455 q 151 478 166 512 q 180 545 200 576 q 219 606 244 628 q 270 649 301 649 q 318 649 329 642 q 340 634 346 622 q 353 611 356 596 q 358 582 358 568 q 358 561 356 546 q 354 532 350 516 q 347 501 342 488 q 337 475 331 471 q 324 467 318 469 q 311 471 309 478 q 306 486 310 494 q 313 502 321 505 q 326 520 329 537 q 332 554 333 568 q 333 574 332 584 q 331 593 328 602 q 326 610 321 616 q 316 623 307 623 q 289 623 270 599 q 252 575 236 543 q 220 511 208 480 q 196 450 192 437 q 172 381 154 318 q 137 255 124 195 q 111 135 102 82 q 93 30 89 -4 q 116 -6 142 -12 q 168 -18 194 -24 q 221 -30 247 -34 q 273 -39 299 -39 q 317 -39 334 -36 q 350 -32 366 -24 z"},"3":{"x_min":0,"x_max":336,"ha":336,"o":"m 164 224 q 156 224 151 228 q 146 233 144 239 q 141 245 142 251 q 142 257 144 260 q 159 269 178 286 q 198 302 216 322 q 234 341 246 362 q 258 384 258 402 q 258 413 252 425 q 246 437 234 437 q 215 437 190 424 q 166 412 143 394 q 120 376 102 354 q 84 333 78 315 q 76 307 71 304 q 66 301 61 302 q 56 302 54 306 q 51 311 53 319 q 60 342 80 367 q 100 392 126 413 q 153 434 182 448 q 211 462 235 462 q 262 462 278 445 q 295 428 295 402 q 295 362 274 326 q 252 291 221 263 q 248 257 266 235 q 283 213 283 175 q 283 142 270 113 q 256 84 234 62 q 212 39 184 24 q 155 10 124 7 q 101 4 78 11 q 55 18 38 32 q 21 47 12 68 q 2 88 5 113 q 6 121 10 124 q 14 127 19 126 q 24 125 28 120 q 31 116 30 110 q 28 94 34 80 q 41 66 52 56 q 63 46 78 40 q 93 35 108 35 q 131 36 153 50 q 175 63 192 84 q 210 104 220 128 q 231 153 231 175 q 231 186 228 197 q 224 208 219 216 q 210 228 203 231 q 196 234 190 232 q 183 231 176 228 q 170 224 164 224 z"},";":{"x_min":0,"x_max":314,"ha":314,"o":"m 177 307 q 188 307 196 299 q 203 291 202 280 q 201 269 192 261 q 184 253 173 253 q 162 253 154 261 q 147 269 148 280 q 149 291 158 299 q 166 307 177 307 z m 115 79 q 105 81 99 88 q 93 96 94 106 q 95 120 104 126 q 113 133 124 133 q 134 134 142 127 q 149 120 148 107 q 147 92 139 80 q 131 68 122 61 q 113 54 106 53 q 99 52 99 61 q 99 66 105 70 q 111 74 115 79 z"},"J":{"x_min":0,"x_max":440,"ha":440,"o":"m 440 206 q 442 206 444 202 q 445 198 446 194 q 446 189 445 184 q 444 180 441 180 q 393 177 338 151 q 311 65 279 -18 q 247 -101 214 -168 q 181 -234 149 -278 q 117 -323 91 -331 q 83 -333 78 -329 q 73 -325 69 -317 q 66 -322 60 -324 q 54 -325 52 -323 q 43 -308 38 -289 q 32 -270 32 -252 q 33 -171 68 -95 q 104 -19 158 44 q 187 77 218 103 q 250 129 282 149 q 297 194 312 244 q 326 295 338 346 q 350 398 358 449 q 365 500 366 547 q 367 570 364 587 q 361 604 352 604 q 349 604 339 600 q 337 599 332 603 q 328 607 326 612 q 294 600 264 568 q 235 536 211 490 q 177 427 156 356 q 134 286 128 232 q 136 224 132 211 q 128 198 117 197 q 108 197 105 205 q 102 213 102 224 q 102 252 111 290 q 120 328 133 368 q 146 407 161 443 q 176 479 189 502 q 218 556 254 593 q 291 630 333 640 q 338 642 340 638 q 343 633 344 628 q 367 634 381 628 q 395 622 403 608 q 411 595 414 576 q 417 558 417 540 q 418 500 412 454 q 405 408 394 360 q 384 313 372 268 q 359 222 347 182 q 372 193 396 198 q 420 204 440 206 z m 75 -276 q 92 -266 116 -230 q 139 -195 165 -142 q 191 -90 218 -24 q 245 41 269 111 q 221 76 177 28 q 126 -32 92 -104 q 58 -175 57 -253 q 57 -273 66 -294 q 66 -281 75 -276 z"},"V":{"x_min":0,"x_max":333,"ha":333,"o":"m 643 642 q 659 640 665 628 q 671 615 658 607 q 650 602 642 604 q 633 607 629 615 q 597 619 568 616 q 540 614 508 599 q 470 581 435 543 q 400 505 368 456 q 336 406 307 350 q 278 293 251 238 q 224 184 199 136 q 174 87 150 54 q 135 32 116 14 q 96 -3 68 -1 q 52 1 39 12 q 26 22 27 44 q 28 103 36 168 q 43 234 53 300 q 57 327 62 358 q 68 390 73 420 q 78 451 82 478 q 86 505 89 523 q 74 499 67 478 q 60 457 55 429 q 61 422 61 412 q 61 403 55 397 q 43 386 33 396 q 23 406 25 422 q 28 442 36 464 q 43 487 53 510 q 63 532 74 553 q 86 574 97 591 q 105 603 116 610 q 126 616 136 616 q 146 617 153 612 q 160 608 162 598 q 160 587 154 552 q 148 517 139 468 q 130 419 120 362 q 111 304 102 249 q 94 194 88 146 q 83 98 83 68 q 83 31 92 31 q 100 30 111 42 q 122 53 132 67 q 158 103 184 152 q 210 202 236 258 q 263 313 292 370 q 320 426 352 476 q 384 526 420 565 q 456 604 498 623 q 530 637 570 642 q 609 647 643 642 z"},"\"":{"x_min":0,"x_max":262,"ha":262,"o":"m 151 603 q 144 585 136 566 q 129 546 124 527 q 122 521 117 519 q 112 517 106 518 q 101 520 98 525 q 95 530 97 538 q 102 557 106 576 q 111 594 119 613 q 122 621 128 622 q 135 624 141 622 q 147 620 150 614 q 154 609 151 603 z m 234 603 q 227 585 220 566 q 212 546 207 527 q 205 521 200 519 q 195 517 190 518 q 184 520 181 525 q 178 530 180 538 q 185 557 190 576 q 194 594 202 613 q 205 621 212 622 q 218 624 224 622 q 230 620 234 614 q 237 609 234 603 z"},"7":{"x_min":0,"x_max":300,"ha":300,"o":"m 210 261 l 203 238 q 211 240 220 242 q 230 245 241 248 q 244 249 247 246 q 250 243 252 238 q 253 234 252 229 q 251 224 246 223 q 216 214 195 211 q 178 154 162 101 q 147 48 137 12 q 134 1 125 -2 q 116 -5 106 -3 q 97 -1 90 6 q 84 13 86 21 q 95 56 110 105 q 124 154 140 207 q 129 207 120 208 q 110 208 100 208 q 93 208 90 212 q 86 217 86 222 q 86 226 90 230 q 94 233 101 233 q 112 233 124 232 q 136 232 147 232 l 160 276 q 174 320 185 357 q 196 394 202 417 q 194 418 182 422 q 169 426 156 430 q 142 433 129 434 q 116 435 109 432 q 84 421 64 398 q 43 376 42 347 q 42 339 43 334 q 44 326 41 321 q 38 316 34 314 q 29 313 24 316 q 20 320 18 330 q 17 335 17 339 q 17 343 17 348 q 18 384 42 412 q 67 441 99 455 q 112 461 128 460 q 145 459 162 456 q 180 452 196 448 q 213 443 228 441 q 246 438 253 434 q 260 430 256 416 z"},"S":{"x_min":0,"x_max":442,"ha":442,"o":"m 29 414 q 33 464 67 506 q 101 548 154 581 q 207 614 273 638 q 339 661 407 674 q 475 686 540 688 q 604 690 654 680 q 703 670 733 648 q 763 625 761 590 q 760 569 748 550 q 736 531 718 515 q 701 499 682 486 q 662 474 645 465 q 634 457 622 462 q 611 467 614 481 q 616 489 624 494 q 632 500 640 498 q 654 505 670 514 q 687 523 701 534 q 715 546 725 560 q 735 574 736 591 q 737 615 710 628 q 683 641 638 645 q 594 649 536 644 q 478 639 417 626 q 356 613 297 592 q 238 572 191 544 q 144 517 114 483 q 84 449 81 410 q 79 385 100 354 q 122 323 152 292 q 183 262 215 234 q 247 205 267 186 q 312 197 356 201 q 401 205 440 206 q 442 206 443 202 q 444 198 444 193 q 444 188 443 184 q 442 180 440 180 q 405 180 366 176 q 327 173 287 165 q 307 144 320 122 q 334 99 333 79 q 332 67 322 57 q 311 47 296 39 q 282 31 268 26 q 253 20 244 17 q 216 7 182 2 q 148 -3 117 -3 q 105 -3 86 -2 q 66 0 48 6 q 29 11 16 20 q 3 30 3 46 q 3 58 15 70 q 27 83 43 94 q 59 105 76 114 q 92 122 101 127 q 129 141 158 152 q 186 162 209 169 q 185 191 153 219 q 121 247 92 280 q 64 312 45 346 q 26 380 29 414 z m 281 82 q 282 93 266 112 q 250 130 230 149 q 208 143 176 131 q 144 119 112 104 q 107 102 94 96 q 82 90 69 82 q 56 74 46 66 q 36 57 36 51 q 36 45 46 40 q 56 36 69 34 q 82 32 95 31 q 108 30 114 30 q 131 30 159 33 q 187 36 214 42 q 240 49 260 58 q 280 68 281 82 z"},"}":{"x_min":0,"x_max":311,"ha":311,"o":"m 225 302 q 215 302 208 296 q 202 291 197 282 q 188 264 181 234 q 174 205 166 170 q 159 136 148 100 q 137 63 120 29 q 102 -8 74 -36 q 46 -65 4 -79 q -10 -84 -12 -76 q -14 -68 -1 -63 q 18 -55 33 -37 q 48 -19 62 6 q 80 40 92 74 q 103 109 113 142 q 123 176 134 208 q 144 239 159 268 q 176 303 205 315 q 195 325 192 339 q 188 353 188 370 q 189 401 197 428 q 205 455 214 483 q 224 511 232 541 q 240 571 241 608 q 242 634 236 651 q 231 668 218 680 q 209 689 214 696 q 219 702 230 694 q 262 669 274 639 q 286 609 284 570 q 282 534 272 502 q 261 470 249 442 q 237 414 227 390 q 217 366 217 346 q 215 326 231 320 q 241 315 238 309 q 236 303 225 302 z"},"Z":{"x_min":0,"x_max":440,"ha":440,"o":"m 440 206 q 442 209 446 208 q 451 208 455 205 q 459 202 461 198 q 463 194 460 190 q 444 168 410 152 q 376 135 339 121 q 331 80 313 34 q 295 -12 270 -56 q 246 -101 218 -141 q 190 -181 162 -210 q 133 -240 106 -256 q 80 -273 60 -269 q 48 -267 40 -258 q 31 -248 26 -235 q 21 -222 19 -208 q 17 -195 17 -184 q 16 -121 37 -72 q 58 -23 94 14 q 130 52 178 79 q 227 106 282 126 q 285 137 288 152 q 290 167 290 183 q 291 228 268 238 q 246 248 210 230 l 175 178 q 170 175 159 176 q 148 177 138 182 q 128 186 123 194 q 118 201 124 210 q 142 237 167 276 q 192 314 222 360 q 253 406 290 456 q 326 506 368 555 q 348 553 328 553 q 309 553 292 553 q 258 553 216 552 q 173 552 136 542 q 98 533 72 509 q 47 485 46 437 q 46 430 46 424 q 47 418 48 412 q 54 410 58 404 q 61 398 61 392 q 61 385 57 379 q 53 373 45 373 q 36 373 32 381 q 27 389 24 400 q 22 410 22 420 q 21 431 21 437 q 22 494 49 523 q 76 552 116 564 q 157 576 204 577 q 251 578 292 578 q 314 578 342 578 q 370 579 393 584 l 407 599 q 416 603 423 598 q 430 593 434 584 q 439 574 440 563 q 441 552 436 545 q 399 500 372 466 q 345 431 322 400 q 300 368 279 336 q 258 304 233 266 q 264 273 286 267 q 309 261 323 244 q 337 228 342 204 q 347 179 344 149 q 374 161 400 175 q 427 189 440 206 z m 62 -229 q 81 -232 110 -201 q 140 -170 171 -122 q 202 -73 230 -14 q 258 44 274 97 q 224 78 182 52 q 139 27 108 -7 q 77 -41 60 -86 q 43 -130 43 -187 q 43 -202 47 -214 q 51 -227 62 -229 z"},"x":{"x_min":0,"x_max":363,"ha":363,"o":"m 363 206 q 365 209 370 208 q 374 208 378 205 q 382 202 384 198 q 386 194 383 190 q 364 165 336 132 q 308 100 276 71 q 243 42 210 22 q 178 3 150 3 q 133 3 120 26 q 106 48 95 81 q 63 52 34 30 q 5 8 -19 -3 q -22 -5 -26 -2 q -29 1 -30 6 q -32 10 -32 14 q -32 19 -27 21 q -4 32 26 56 q 56 79 88 108 q 80 140 76 174 q 73 208 70 234 q 64 239 54 230 q 45 220 37 211 q 32 206 28 200 q 24 195 20 190 q 18 188 14 190 q 11 191 8 194 q 4 197 2 200 q -1 204 0 206 q 5 212 12 222 q 20 233 29 244 q 38 254 46 263 q 55 272 62 276 q 70 281 80 280 q 89 280 98 276 q 107 271 113 264 q 119 258 119 251 q 120 232 124 204 q 128 176 133 152 q 169 187 202 222 q 236 258 262 287 q 264 291 268 290 q 272 289 276 285 q 279 281 280 276 q 280 270 275 265 q 247 234 212 196 q 177 159 139 123 q 147 90 156 66 q 164 42 173 42 q 191 42 218 61 q 245 80 273 106 q 301 133 326 161 q 350 189 363 206 z"},")":{"x_min":0,"x_max":299,"ha":299,"o":"m 22 81 q 51 100 78 135 q 106 170 129 214 q 152 258 170 307 q 188 356 198 403 q 207 450 208 492 q 208 534 196 563 q 191 574 194 582 q 196 591 202 594 q 207 598 214 596 q 220 594 225 583 q 235 558 235 518 q 235 478 228 430 q 220 382 204 329 q 189 276 168 226 q 147 175 121 131 q 95 87 66 57 q 46 36 34 36 q 23 36 18 45 q 14 54 16 66 q 17 78 22 81 z"},"&":{"x_min":0,"x_max":580,"ha":580,"o":"m 430 208 q 429 169 413 138 q 397 107 370 79 q 373 71 376 59 q 380 47 382 39 q 384 31 378 26 q 373 21 366 18 q 358 16 350 18 q 343 20 342 26 l 336 49 q 304 27 266 14 q 228 1 189 1 q 146 1 120 25 q 95 49 96 94 q 96 136 112 171 q 129 206 154 236 q 179 266 210 292 q 242 317 272 339 q 270 367 273 402 q 276 438 288 469 q 299 500 321 521 q 343 542 381 542 q 405 542 424 528 q 442 513 443 487 q 443 464 429 441 q 415 418 395 396 q 375 374 352 356 q 329 338 312 326 q 316 294 321 268 q 326 242 332 218 q 338 193 346 167 q 353 141 362 111 q 379 128 390 146 q 402 164 402 196 q 402 225 379 225 q 370 225 362 221 q 353 216 344 224 q 335 233 333 243 q 332 249 338 254 q 343 259 352 262 q 360 266 368 268 q 377 271 382 271 q 406 271 418 251 q 430 231 430 208 z m 217 45 q 246 45 274 54 q 303 64 327 80 q 319 111 311 138 q 303 166 296 192 q 290 218 286 246 q 281 273 278 306 q 255 289 230 269 q 205 249 184 226 q 163 202 150 175 q 136 148 136 118 q 136 75 156 60 q 176 45 217 45 z m 307 362 q 320 373 335 386 q 350 399 362 414 q 374 429 382 446 q 390 462 391 480 q 392 489 390 499 q 387 509 373 509 q 352 509 338 493 q 324 477 316 454 q 309 430 307 405 q 305 380 307 362 z"},"_":{"x_min":0,"x_max":232,"ha":232,"o":"m 172 -20 q 178 -20 182 -24 q 185 -29 185 -34 q 185 -39 182 -43 q 179 -47 174 -47 l -40 -53 q -47 -53 -50 -48 q -54 -42 -54 -35 q -54 -28 -50 -22 q -47 -17 -41 -17 z"},"v":{"x_min":0,"x_max":356,"ha":356,"o":"m 356 206 q 358 209 362 208 q 367 208 371 205 q 375 202 377 198 q 379 194 376 190 q 356 163 327 147 q 298 131 263 130 q 247 104 226 76 q 204 47 178 24 q 151 1 120 -14 q 89 -30 56 -30 q 22 -30 1 -10 q -20 10 -20 40 q -20 58 -15 80 q -10 103 -2 126 q 7 149 18 172 q 28 196 40 216 q 35 210 30 204 q 25 198 20 191 q 18 189 14 191 q 11 193 7 196 q 3 199 0 202 q -2 205 0 207 q 13 224 30 243 q 46 262 63 276 q 72 283 84 282 q 97 282 108 276 q 118 270 122 260 q 126 250 119 238 q 112 227 98 205 q 85 183 72 156 q 58 130 48 102 q 37 74 36 52 q 34 31 42 18 q 49 4 77 4 q 99 4 122 18 q 146 31 168 51 q 189 71 207 94 q 225 116 236 133 q 212 140 199 160 q 186 180 186 204 q 186 233 203 256 q 220 280 252 280 q 275 281 288 267 q 301 253 301 230 q 301 212 294 192 q 286 173 278 156 q 302 160 322 173 q 342 186 356 206 z m 249 156 q 255 166 266 189 q 276 212 276 231 q 276 242 271 248 q 266 255 252 255 q 232 255 222 240 q 211 224 211 205 q 211 186 220 172 q 230 159 249 156 z"},"O":{"x_min":0,"x_max":496,"ha":496,"o":"m 431 716 q 498 716 524 680 q 551 644 551 582 q 551 534 534 472 q 517 411 488 346 q 458 282 418 221 q 379 160 333 112 q 287 64 238 35 q 188 6 139 7 q 106 7 85 22 q 64 38 52 62 q 40 86 36 114 q 31 143 31 170 q 31 226 50 286 q 68 346 102 398 q 135 450 182 488 q 229 527 286 540 q 295 543 302 540 q 309 538 312 532 q 315 527 313 520 q 311 513 303 508 q 292 488 282 459 q 272 430 272 410 q 272 407 266 404 q 260 400 253 398 q 246 397 240 398 q 235 399 236 405 q 237 414 241 427 q 245 440 251 454 q 257 469 264 484 q 270 498 276 510 l 276 511 q 226 495 186 458 q 145 421 116 373 q 87 325 72 271 q 56 217 56 167 q 56 147 60 124 q 63 102 72 84 q 82 65 98 52 q 115 40 140 40 q 177 39 218 68 q 259 97 299 144 q 339 190 376 250 q 412 309 440 370 q 467 430 483 486 q 499 542 499 583 q 499 602 494 621 q 490 640 480 655 q 470 670 454 680 q 439 690 417 690 q 394 690 372 682 q 349 675 328 661 q 307 647 290 629 q 273 611 262 590 q 263 582 258 575 q 254 568 246 566 q 237 563 230 568 q 223 572 223 582 q 223 589 229 599 q 235 609 243 620 q 251 630 260 638 q 268 647 273 652 q 306 681 349 698 q 392 716 431 716 z"},"(":{"x_min":0,"x_max":245,"ha":245,"o":"m 289 563 q 260 544 232 509 q 205 474 182 430 q 159 386 142 337 q 124 288 114 241 q 105 194 104 152 q 104 110 116 81 q 120 70 118 62 q 115 53 110 49 q 104 45 97 48 q 90 50 86 61 q 76 85 76 126 q 76 166 84 214 q 91 262 106 315 q 122 368 143 418 q 164 469 190 513 q 216 557 245 587 q 266 608 278 608 q 289 608 294 599 q 298 590 296 578 q 295 566 289 563 z"},"C":{"x_min":0,"x_max":417,"ha":417,"o":"m 417 206 q 419 209 424 208 q 428 208 432 205 q 436 202 438 198 q 440 194 437 190 q 416 162 382 128 q 347 95 308 66 q 269 37 230 18 q 190 -2 159 -2 q 115 -1 90 16 q 64 34 52 62 q 40 90 40 126 q 40 162 46 199 q 52 236 62 270 q 71 305 80 332 q 88 358 104 396 q 121 435 142 478 q 164 520 191 562 q 218 605 248 639 q 279 673 312 694 q 345 715 379 715 q 398 715 412 706 q 425 698 434 685 q 442 672 446 656 q 450 639 450 623 q 450 588 440 548 q 430 509 413 470 q 396 431 374 397 q 351 363 327 340 q 325 339 323 342 q 321 346 319 346 q 309 346 305 350 q 301 355 302 362 q 302 369 306 376 q 309 384 314 389 q 361 433 393 494 q 425 554 425 620 q 425 630 424 641 q 422 652 418 661 q 414 670 406 676 q 399 682 386 682 q 357 682 329 660 q 301 639 275 606 q 249 573 226 532 q 202 490 183 450 q 164 409 150 374 q 136 338 129 316 q 124 300 116 272 q 109 245 103 213 q 97 181 94 148 q 92 116 98 89 q 104 62 120 46 q 135 29 165 29 q 195 29 232 48 q 268 67 304 94 q 339 121 369 152 q 399 182 417 206 z"},"W":{"x_min":0,"x_max":513,"ha":513,"o":"m 741 659 q 757 658 764 646 q 772 635 759 625 q 752 620 743 622 q 734 623 729 631 q 697 632 670 626 q 642 621 611 603 q 577 583 550 546 q 524 509 503 462 q 482 415 465 362 q 448 308 432 254 q 417 201 402 152 q 387 104 370 66 q 353 29 332 6 q 312 -16 285 -16 q 269 -16 256 -6 q 242 3 240 24 q 236 81 238 140 q 239 200 243 258 q 247 316 252 370 q 256 425 259 472 q 251 452 242 436 q 234 421 224 406 q 215 391 204 374 q 192 357 179 333 q 162 303 144 270 q 126 236 111 203 q 96 170 86 138 q 76 105 75 77 q 74 69 74 64 q 75 58 66 57 q 59 57 50 59 q 40 61 31 66 q 22 70 16 76 q 11 83 12 91 l 93 663 q 96 671 104 675 q 113 679 122 679 q 132 679 140 674 q 148 669 150 660 q 134 548 119 439 q 104 330 87 219 q 104 252 122 284 q 140 315 157 346 q 193 408 218 448 q 242 488 252 529 q 257 550 268 562 q 278 574 290 578 q 302 583 312 580 q 322 576 325 564 q 324 555 322 526 q 319 498 316 458 q 312 417 308 369 q 304 321 300 272 q 297 223 294 178 q 292 132 292 96 q 293 61 296 40 q 299 18 306 18 q 325 18 342 56 q 360 94 378 154 q 397 213 418 286 q 439 358 465 426 q 491 493 524 548 q 557 602 599 626 q 629 643 668 652 q 707 661 741 659 z"},"A":{"x_min":0,"x_max":958,"ha":958,"o":"m 919 684 q 925 684 934 681 q 944 678 952 673 q 961 668 966 661 q 972 654 970 646 q 947 537 914 424 q 881 312 846 205 q 880 203 908 203 q 936 203 958 206 q 958 201 960 191 q 962 181 957 180 q 935 178 904 178 q 874 179 838 181 q 820 124 803 75 q 786 26 773 -6 q 769 -11 758 -14 q 748 -16 738 -14 q 728 -13 721 -8 q 714 -3 718 7 q 730 38 746 84 q 763 130 780 184 q 735 187 688 190 q 642 192 597 193 q 556 133 510 80 q 465 26 416 -15 q 368 -56 316 -80 q 263 -104 207 -104 q 171 -104 131 -92 q 91 -80 60 -61 q 55 -58 52 -54 q 48 -50 46 -45 q 44 -37 48 -30 q 52 -24 60 -23 q 68 -22 76 -28 q 83 -34 85 -43 q 114 -60 142 -69 q 170 -78 207 -78 q 258 -78 306 -56 q 354 -34 399 3 q 444 40 486 89 q 527 138 566 193 q 497 192 440 182 q 384 173 355 147 q 357 138 352 130 q 346 122 338 120 q 324 116 318 127 q 313 138 320 148 q 335 169 362 182 q 388 196 422 204 q 457 212 498 215 q 539 218 583 218 q 619 272 652 328 q 686 383 716 434 q 747 486 775 532 q 803 578 828 612 q 854 645 876 664 q 899 684 919 684 z m 788 209 q 824 319 856 430 q 887 541 913 655 q 890 653 860 614 q 830 574 792 512 q 754 449 709 372 q 664 294 613 217 q 658 216 702 214 q 746 211 788 209 z"},"f":{"x_min":0,"x_max":243,"ha":243,"o":"m 206 349 q 179 324 146 304 q 113 283 86 274 q 67 220 45 168 q 23 117 2 65 l 48 81 q 72 89 96 98 q 121 107 144 119 q 167 131 188 146 q 209 161 225 182 l 243 206 q 245 209 250 208 q 254 208 258 205 q 262 202 264 198 q 266 194 263 190 l 245 166 q 229 145 206 129 q 184 113 158 100 q 133 87 106 77 q 80 67 56 58 q 39 52 22 46 q 6 41 -10 35 q -34 -25 -60 -93 q -86 -161 -109 -224 q -132 -286 -150 -336 q -169 -385 -176 -406 q -179 -413 -189 -416 q -199 -418 -208 -416 q -218 -413 -224 -405 q -231 -397 -226 -383 q -214 -347 -203 -306 q -192 -264 -184 -220 q -176 -177 -170 -135 q -164 -93 -161 -55 q -159 -23 -133 -1 q -107 21 -68 38 l 52 336 q 69 380 90 422 q 111 465 134 498 q 158 532 184 553 q 209 574 236 574 q 252 574 264 567 q 275 560 282 549 q 289 538 292 524 q 294 510 293 495 q 291 462 266 422 q 241 381 206 349 z m 104 319 q 102 317 102 315 q 102 313 105 315 q 123 325 146 340 q 168 354 185 371 q 201 385 215 402 q 229 418 240 434 q 250 451 256 467 q 263 483 264 497 q 266 517 258 527 q 251 537 240 537 q 222 537 202 512 q 181 487 162 452 q 144 418 128 380 q 113 343 104 319 z m -159 -198 q -140 -148 -120 -96 q -100 -44 -80 6 q -105 -7 -120 -22 q -135 -37 -137 -57 q -139 -85 -145 -120 q -151 -156 -159 -198 z"},"Q":{"x_min":0,"x_max":511,"ha":511,"o":"m 335 108 q 348 87 367 65 q 386 43 412 10 q 416 5 413 1 q 410 -3 404 -5 q 398 -7 392 -6 q 386 -6 383 -2 q 361 26 344 48 q 328 69 316 90 q 274 51 231 28 q 188 6 144 7 q 117 7 97 19 q 77 31 64 52 q 50 73 44 100 q 37 128 37 160 q 37 199 46 242 q 54 285 70 327 q 87 369 112 406 q 136 444 166 473 q 197 502 234 518 q 271 535 314 535 q 323 535 342 532 q 362 530 382 525 q 402 520 418 513 q 435 506 439 497 q 442 489 439 482 q 436 475 428 473 q 420 471 412 476 q 403 481 400 489 q 353 508 310 508 q 253 508 208 474 q 162 439 130 388 q 97 337 80 278 q 62 218 62 166 q 62 113 82 76 q 102 40 146 40 q 181 39 220 65 q 259 91 297 134 q 289 161 288 187 q 288 213 290 237 q 292 261 293 284 q 294 308 289 331 q 287 336 290 339 q 294 342 298 344 q 303 345 308 345 q 312 345 312 344 q 318 323 318 300 q 317 277 316 253 q 314 229 313 204 q 312 180 317 157 q 355 204 389 262 q 423 320 449 378 q 475 436 490 490 q 505 544 505 583 q 505 602 500 621 q 496 640 486 655 q 476 670 460 680 q 445 690 423 690 q 400 690 377 682 q 354 675 334 661 q 313 647 296 629 q 278 611 268 590 q 269 582 264 575 q 260 568 252 566 q 243 563 236 568 q 229 572 229 582 q 229 589 235 599 q 241 609 249 620 q 257 630 265 638 q 273 647 278 652 q 312 681 355 698 q 398 716 437 716 q 504 716 530 680 q 557 644 557 582 q 557 534 540 472 q 522 409 492 344 q 462 279 422 218 q 381 156 335 108 z"},"w":{"x_min":0,"x_max":512,"ha":512,"o":"m 512 206 q 514 209 518 208 q 523 208 527 205 q 531 202 533 198 q 535 194 532 190 q 512 163 483 148 q 454 132 419 131 q 402 104 382 76 q 362 49 337 28 q 312 6 284 -8 q 255 -21 222 -21 q 197 -21 182 -9 q 168 3 162 21 q 155 39 154 60 q 153 82 156 101 q 141 81 124 62 q 107 42 90 27 q 74 12 57 2 q 40 -8 25 -9 q 5 -11 -12 -5 q -28 1 -33 22 q -38 39 -32 63 q -27 87 -16 113 q -4 139 11 166 q 26 193 40 216 q 35 210 30 204 q 25 198 20 191 q 18 189 14 191 q 11 193 8 196 q 4 199 2 202 q -1 205 0 207 q 13 224 30 243 q 46 262 63 276 q 68 281 82 282 q 97 282 105 279 q 116 274 122 262 q 128 249 120 237 q 113 226 96 200 q 79 173 62 142 q 44 110 30 80 q 17 50 18 34 q 18 30 19 28 q 20 25 25 26 q 42 27 62 42 q 82 58 102 80 q 123 101 142 126 q 161 152 176 174 q 187 199 200 221 q 212 243 226 263 q 231 270 240 268 q 250 267 258 260 q 267 254 271 244 q 275 235 269 226 q 248 196 228 152 q 207 108 207 60 q 208 43 213 28 q 218 12 240 12 q 264 12 286 24 q 307 36 326 54 q 346 72 362 93 q 379 114 391 134 q 367 141 354 161 q 342 181 342 205 q 341 234 358 258 q 376 281 407 281 q 430 281 444 268 q 457 254 457 231 q 457 213 450 194 q 442 174 434 157 q 458 161 478 174 q 497 186 512 206 z m 405 156 q 411 167 422 190 q 432 213 432 232 q 432 243 427 250 q 422 256 408 256 q 388 256 378 240 q 367 224 367 206 q 367 187 376 174 q 386 160 405 156 z"},"-":{"x_min":0,"x_max":341,"ha":341,"o":"m 240 200 q 245 200 247 196 q 249 191 248 186 q 247 181 244 176 q 240 172 234 172 l 71 172 q 65 172 62 178 q 60 183 62 190 q 63 196 67 202 q 71 208 78 208 l 240 200 z"},"E":{"x_min":0,"x_max":442,"ha":442,"o":"m 428 598 q 443 612 456 632 q 468 651 468 668 q 468 681 455 681 q 445 681 436 676 q 426 672 418 667 q 404 657 390 642 q 376 627 365 607 q 354 587 348 563 q 341 539 341 512 q 342 495 347 479 q 352 463 366 452 q 374 446 376 436 q 379 425 376 416 q 373 407 366 402 q 358 397 348 402 q 297 411 252 390 q 207 368 174 329 q 141 290 122 240 q 103 191 103 145 q 104 94 128 62 q 152 29 203 29 q 246 29 280 46 q 315 62 344 88 q 372 113 396 144 q 420 176 442 206 q 444 209 448 208 q 453 208 457 205 q 461 202 463 198 q 465 194 462 190 q 435 153 407 119 q 379 85 347 59 q 315 33 276 18 q 236 2 185 2 q 113 2 82 42 q 51 81 51 148 q 51 199 70 252 q 89 305 122 348 q 156 392 202 422 q 247 451 300 456 q 294 470 292 486 q 289 501 289 518 q 289 546 296 574 q 304 602 318 628 q 331 653 350 674 q 368 695 389 710 q 403 719 420 726 q 436 733 453 733 q 478 733 488 720 q 497 706 497 687 q 497 669 492 652 q 486 634 476 617 q 473 612 467 604 q 461 595 453 586 q 445 577 436 570 q 428 563 421 562 q 413 560 408 564 q 402 568 402 576 q 401 586 410 594 q 418 601 428 598 z"},"s":{"x_min":0,"x_max":231,"ha":231,"o":"m 231 206 q 234 210 239 210 q 244 209 248 206 q 252 203 254 198 q 255 194 251 190 q 237 171 212 141 q 188 111 159 82 q 130 53 100 30 q 69 7 43 1 q 20 -5 -8 -3 q -35 -1 -55 14 q -61 19 -58 26 q -54 34 -47 40 q -40 46 -32 50 q -24 53 -21 51 q -9 42 6 38 q 21 34 36 38 q 51 41 64 53 q 77 65 84 89 q 90 108 84 122 q 79 137 70 150 q 60 164 49 177 q 38 190 32 206 l 20 190 q 18 188 14 190 q 11 191 7 194 q 3 197 0 200 q -2 204 0 206 l 27 243 q 28 260 40 278 q 52 297 70 312 q 88 328 109 338 q 130 348 147 348 q 161 348 167 340 q 173 333 173 324 q 173 313 166 307 q 160 301 152 300 q 144 298 136 301 q 128 304 124 312 q 107 306 92 290 q 76 275 76 258 q 76 240 88 224 q 100 208 114 190 q 127 172 136 149 q 144 126 136 94 q 166 124 192 156 q 217 187 231 206 z"},">":{"x_min":0,"x_max":348,"ha":348,"o":"m 45 324 q 34 327 26 331 q 18 335 20 349 q 23 368 42 371 q 61 374 77 368 q 105 357 134 342 q 164 326 187 306 q 210 287 224 264 q 239 241 237 214 q 235 186 214 164 q 192 142 162 125 q 133 108 100 97 q 67 86 42 81 q 35 79 32 82 q 28 85 28 88 q 27 92 30 96 q 33 100 40 102 q 60 106 87 114 q 114 122 140 135 q 165 148 184 164 q 202 181 204 202 q 206 222 190 241 q 175 260 150 276 q 126 291 98 304 q 69 316 45 324 z"},"l":{"x_min":0,"x_max":272,"ha":272,"o":"m 272 206 q 274 209 278 208 q 283 208 287 205 q 291 202 293 198 q 295 194 292 190 q 275 167 256 144 q 238 122 218 101 q 204 86 184 66 q 165 47 142 30 q 120 13 97 0 q 74 -12 53 -12 q 27 -14 6 8 q -16 29 -17 82 q -18 118 -10 160 q -2 201 10 244 q 23 286 38 327 q 53 368 66 403 q 80 440 98 480 q 116 519 138 552 q 159 584 184 604 q 209 624 237 623 q 267 622 280 595 q 294 568 292 528 q 290 487 274 440 q 257 392 228 350 q 199 307 158 276 q 116 246 65 240 q 62 232 57 213 q 52 194 46 170 q 41 146 38 120 q 34 93 35 71 q 36 40 44 28 q 52 16 66 17 q 79 17 98 29 q 117 41 136 58 q 156 74 174 91 q 191 108 201 119 q 220 140 238 162 q 255 183 272 206 z m 238 597 q 223 597 207 577 q 191 557 174 526 q 158 495 142 457 q 127 419 114 382 q 101 346 90 315 q 80 284 74 267 q 118 277 152 305 q 187 333 211 370 q 235 407 249 447 q 263 487 266 520 q 270 554 263 576 q 256 597 238 597 z"},"8":{"x_min":0,"x_max":296,"ha":296,"o":"m 261 389 q 261 364 251 338 q 241 313 225 288 q 209 264 190 242 q 171 219 152 199 q 158 190 164 178 q 171 165 176 152 q 182 139 186 126 q 189 112 189 101 q 189 86 182 68 q 175 51 164 36 q 153 22 138 13 q 124 4 110 4 q 102 4 86 10 q 70 17 54 26 q 38 36 26 48 q 15 59 15 68 q 15 79 22 92 q 30 105 42 120 q 54 134 70 150 q 85 165 101 182 q 93 195 82 213 q 70 231 59 250 q 48 268 40 286 q 32 304 31 318 q 29 331 42 351 q 55 371 72 390 q 86 405 108 421 q 131 437 150 437 q 168 437 179 427 q 186 421 184 414 q 182 407 176 402 q 169 397 162 394 q 155 390 154 392 l 149 392 q 146 392 135 382 q 124 373 112 361 q 100 349 91 338 q 82 326 82 323 q 83 312 90 298 q 97 285 106 272 q 114 258 123 244 q 132 231 138 221 q 155 239 172 260 q 189 280 204 302 q 218 323 227 344 q 236 366 236 387 q 236 403 230 418 q 225 434 211 448 q 206 454 206 460 q 206 466 209 470 q 212 473 218 472 q 224 472 230 465 q 247 447 254 428 q 261 409 261 389 z m 106 40 q 112 40 118 48 q 123 56 128 66 q 132 76 135 86 q 138 96 137 101 q 133 127 115 159 q 86 130 66 106 q 47 83 47 69 q 47 64 54 59 q 62 54 72 50 q 82 45 92 42 q 102 40 106 40 z"},"\\":{"x_min":0,"x_max":469,"ha":469,"o":"m 153 -8 q 151 11 142 48 q 133 86 119 132 q 105 178 88 228 q 72 279 56 325 q 39 371 24 408 q 10 445 0 464 q -5 472 -2 480 q 0 487 6 490 q 12 494 20 492 q 28 491 34 480 q 48 457 64 420 q 80 383 96 339 q 112 295 127 247 q 142 199 154 154 q 166 108 174 68 q 181 29 182 2 q 182 -3 178 -7 q 174 -11 168 -12 q 163 -14 158 -14 q 154 -13 153 -8 z m 255 -8 q 253 11 244 48 q 235 86 221 132 q 207 178 190 228 q 174 279 158 325 q 141 371 126 408 q 112 445 102 464 q 97 472 100 480 q 102 487 108 490 q 114 494 122 492 q 130 491 136 480 q 150 457 166 420 q 182 383 198 339 q 214 295 229 247 q 244 199 256 154 q 268 108 276 68 q 283 29 284 2 q 284 -3 280 -7 q 276 -11 270 -12 q 265 -14 260 -14 q 256 -13 255 -8 z"},"e":{"x_min":0,"x_max":307,"ha":307,"o":"m 307 206 q 309 209 314 208 q 318 208 322 205 q 326 202 328 198 q 331 194 328 190 q 305 160 279 125 q 253 90 222 60 q 191 30 154 10 q 117 -10 74 -10 q 48 -10 30 0 q 11 10 0 26 q -12 43 -17 64 q -22 86 -22 109 q -22 143 -10 180 q 3 218 25 250 q 47 281 78 302 q 109 322 147 322 q 181 321 202 298 q 222 275 220 242 q 218 220 208 202 q 199 184 184 171 q 168 158 148 151 q 128 144 107 144 q 72 144 40 161 q 32 134 32 106 q 32 91 36 76 q 39 62 47 52 q 55 41 68 35 q 81 29 100 30 q 131 31 161 50 q 191 70 218 97 q 245 124 268 154 q 290 183 307 206 z m 153 281 q 135 281 120 274 q 105 266 92 254 q 80 241 70 226 q 61 211 54 196 q 83 178 116 178 q 145 178 166 196 q 188 215 190 244 q 193 283 153 281 z"},"b":{"x_min":0,"x_max":355,"ha":355,"o":"m 355 206 q 357 209 362 208 q 366 208 370 205 q 374 202 376 198 q 378 194 375 190 q 347 152 308 122 q 268 91 220 81 q 211 67 198 53 q 186 39 172 28 q 157 16 140 10 q 123 3 105 3 q 81 3 69 20 q 57 36 58 74 q 58 85 60 96 q 63 107 68 116 q 74 124 82 129 q 91 134 104 134 q 127 134 150 122 q 174 111 194 106 q 211 134 221 164 q 231 193 233 216 q 235 240 228 255 q 222 270 207 270 q 184 270 160 256 q 135 241 112 217 q 89 193 68 164 q 48 134 32 105 q 17 76 8 50 q -1 24 -2 8 q -4 6 -15 4 q -26 3 -38 4 q -51 6 -60 12 q -68 18 -65 31 q -42 97 -15 168 q 12 238 43 309 q 76 387 111 456 q 146 524 182 597 q 192 603 203 602 q 214 601 222 596 q 229 591 232 582 q 234 574 228 567 q 195 500 162 434 q 128 369 98 300 q 86 271 74 242 q 61 212 50 183 q 67 207 86 228 q 105 249 126 265 q 147 281 170 290 q 193 300 218 300 q 245 300 258 284 q 271 268 272 242 q 273 215 264 182 q 255 148 238 114 q 275 131 304 152 q 332 174 355 206 z m 107 36 q 127 37 148 53 q 169 69 180 85 q 160 92 140 100 q 121 109 104 109 q 91 109 87 96 q 83 84 83 74 q 82 51 88 44 q 93 36 107 36 z"},"%":{"x_min":0,"x_max":420,"ha":420,"o":"m 259 463 q 261 467 268 468 q 276 468 284 466 q 291 464 296 460 q 301 455 298 449 q 244 343 190 240 q 136 137 79 31 q 75 23 70 22 q 64 22 58 25 q 53 28 50 32 q 48 37 50 41 q 100 151 151 254 q 202 357 259 463 z m 254 169 q 269 164 276 148 q 282 131 280 114 q 278 79 259 65 q 240 51 220 53 q 202 55 188 70 q 175 84 176 109 q 177 122 182 134 q 187 147 196 157 q 204 167 215 172 q 226 178 239 177 q 243 177 251 174 z m 95 329 q 77 331 64 345 q 50 359 52 384 q 52 397 58 410 q 63 423 71 433 q 79 443 90 448 q 102 454 114 453 l 126 450 q 129 448 129 444 q 144 439 150 423 q 157 407 156 390 q 154 355 134 340 q 115 326 95 329 z m 224 72 q 237 70 246 85 q 256 100 258 117 q 260 134 254 147 q 249 160 232 155 q 230 153 230 158 q 219 153 212 140 q 205 126 204 112 q 202 97 207 85 q 212 73 224 72 z m 105 434 q 94 429 87 416 q 80 402 78 388 q 77 373 82 361 q 87 349 99 348 q 112 346 122 361 q 131 376 134 393 q 136 410 130 422 q 124 435 108 430 q 106 430 105 434 z"},"m":{"x_min":0,"x_max":545,"ha":545,"o":"m 545 206 q 547 209 552 208 q 556 208 560 205 q 563 202 566 198 q 568 194 565 190 q 554 175 528 143 q 503 111 472 79 q 442 47 412 23 q 382 -1 361 0 q 326 1 322 36 q 319 54 326 80 q 334 107 346 136 q 358 165 372 193 q 386 221 397 241 q 382 240 363 226 q 344 213 324 192 q 303 172 282 147 q 261 122 242 98 q 224 73 210 52 q 196 31 189 18 q 185 10 175 8 q 165 5 156 6 q 146 8 140 14 q 134 19 137 28 q 148 57 158 85 q 168 113 179 141 q 191 169 204 195 q 216 221 227 241 q 206 239 176 212 q 145 185 114 149 q 83 113 58 76 q 32 40 21 20 q 16 11 6 8 q -4 5 -14 6 q -23 8 -29 14 q -35 20 -32 28 q -13 75 4 122 q 22 168 40 215 q 35 209 30 203 q 25 197 20 190 q 18 188 14 190 q 11 191 8 194 q 4 197 2 200 q -1 204 0 206 q 12 222 28 240 q 43 257 59 271 q 67 278 78 278 q 89 278 98 273 q 107 268 111 260 q 115 251 109 242 q 94 212 82 182 q 71 153 59 121 q 73 140 94 165 q 115 190 139 212 q 163 235 188 250 q 214 266 238 266 q 255 266 269 260 q 283 253 283 236 q 283 233 276 217 q 268 201 258 182 q 249 163 240 145 q 232 127 229 121 q 243 140 264 165 q 285 190 309 212 q 333 235 358 250 q 383 266 407 266 q 424 266 440 259 q 455 252 455 235 q 455 229 452 225 q 443 209 430 184 q 416 158 404 131 q 391 104 382 79 q 373 54 373 40 q 395 48 419 68 q 443 88 466 112 q 490 137 510 162 q 531 187 545 206 z"},"#":{"x_min":0,"x_max":491,"ha":491,"o":"m 460 353 q 467 353 470 348 q 473 344 473 339 q 473 334 471 330 q 469 325 466 325 l 386 323 q 375 292 364 260 q 354 228 344 196 l 425 197 q 432 197 435 192 q 438 188 438 182 q 438 177 436 172 q 434 168 431 168 l 335 167 q 322 123 313 88 q 304 54 301 34 q 299 25 293 20 q 287 16 280 16 q 273 17 268 23 q 262 29 263 41 q 265 64 272 96 q 279 128 290 166 l 159 164 q 151 135 145 112 q 139 90 137 76 q 136 68 130 64 q 124 61 118 61 q 111 61 106 66 q 101 71 102 81 q 104 97 108 118 q 112 139 118 163 l 49 162 q 43 162 41 167 q 39 172 40 178 q 41 185 44 190 q 48 195 53 195 l 127 195 q 136 225 146 257 q 157 289 169 320 l 85 318 q 79 318 77 323 q 75 328 76 334 q 76 341 80 346 q 83 351 88 351 l 181 352 q 196 389 210 420 q 225 451 238 470 q 240 473 246 473 q 252 473 258 471 q 263 469 266 466 q 270 463 268 460 q 260 446 248 418 q 236 389 222 352 l 353 353 q 373 404 392 446 q 412 488 429 514 q 432 518 438 518 q 443 519 448 517 q 454 515 457 512 q 460 508 458 504 q 447 485 430 444 q 414 404 396 353 z m 299 196 q 308 227 319 259 q 330 291 341 323 l 211 320 q 200 289 189 257 q 178 225 169 195 z"},",":{"x_min":0,"x_max":212,"ha":212,"o":"m 58 4 q 48 6 42 14 q 36 21 37 31 q 38 45 47 52 q 56 58 67 58 q 77 58 84 52 q 92 45 91 32 q 90 17 82 5 q 74 -7 65 -14 q 56 -22 49 -22 q 42 -23 42 -15 q 42 -9 48 -5 q 54 -1 58 4 z"},"n":{"x_min":0,"x_max":375,"ha":375,"o":"m 375 206 q 377 209 382 208 q 386 208 390 205 q 394 202 396 198 q 398 194 395 190 q 384 175 358 143 q 333 111 303 79 q 273 47 243 23 q 213 -1 192 0 q 158 1 152 36 q 149 54 156 80 q 164 107 176 136 q 188 165 202 193 q 216 221 227 241 q 207 239 178 214 q 148 188 118 153 q 87 118 60 81 q 34 44 21 20 q 16 11 6 8 q -4 5 -14 6 q -23 8 -29 14 q -35 20 -32 28 q -13 75 4 122 q 22 168 40 215 q 35 209 30 203 q 25 197 20 190 q 18 188 14 190 q 11 191 8 194 q 4 197 2 200 q -1 204 0 206 q 11 220 24 235 q 37 250 51 263 q 65 277 81 277 q 97 277 106 264 q 115 251 108 241 q 94 213 82 182 q 70 150 59 121 q 76 143 98 168 q 119 194 142 216 q 166 237 190 252 q 215 266 238 266 q 255 266 270 259 q 286 252 286 235 q 286 229 283 225 q 274 209 260 184 q 247 158 234 131 q 221 104 212 79 q 203 54 204 40 q 226 48 250 68 q 274 88 298 112 q 321 137 341 162 q 361 187 375 206 z"},"h":{"x_min":0,"x_max":361,"ha":361,"o":"m 361 206 q 363 209 368 208 q 372 208 376 205 q 380 202 382 198 q 384 194 381 190 q 373 180 358 160 q 344 140 326 116 q 307 93 286 68 q 265 43 244 23 q 224 3 205 -10 q 186 -23 172 -22 q 154 -21 145 -12 q 136 -4 133 13 q 130 31 140 63 q 150 95 165 130 q 180 165 196 198 q 213 231 224 251 q 205 249 182 234 q 158 219 134 196 q 109 173 84 144 q 60 116 38 88 q 17 61 0 36 q -16 12 -24 -4 q -27 -14 -37 -17 q -47 -20 -57 -18 q -67 -15 -74 -7 q -80 1 -75 14 q -56 71 -26 144 q 4 217 44 309 q 80 393 111 461 q 142 529 165 574 q 173 589 181 598 q 189 607 209 608 q 223 608 234 599 q 245 590 245 568 q 245 544 228 506 q 211 469 188 430 q 164 390 140 354 q 115 319 99 299 q 79 251 58 202 q 37 154 17 104 q 40 135 68 166 q 95 196 124 221 q 152 246 180 261 q 208 276 234 276 q 251 276 266 269 q 282 262 282 245 q 282 239 279 235 q 270 219 254 188 q 238 158 222 125 q 207 92 196 62 q 184 32 184 17 q 206 25 231 48 q 256 72 280 101 q 305 130 326 158 q 347 187 361 206 z m 219 558 q 206 534 190 500 q 173 465 154 423 q 163 437 173 454 q 183 471 192 489 q 201 507 208 525 q 216 543 219 558 z"},"z":{"x_min":0,"x_max":350,"ha":350,"o":"m 350 206 q 352 209 356 208 q 361 208 365 205 q 369 202 371 198 q 373 194 370 190 q 328 135 286 94 q 245 53 191 18 q 198 -19 180 -72 q 163 -124 135 -179 q 107 -234 76 -284 q 45 -333 25 -364 q 20 -372 13 -372 q 6 -373 -1 -370 q -8 -366 -14 -360 q -19 -355 -21 -350 q -46 -319 -60 -287 q -73 -255 -73 -223 q -73 -192 -60 -162 q -48 -132 -20 -103 q -13 -96 6 -80 q 24 -65 46 -47 q 69 -29 92 -11 q 116 7 134 19 q 129 22 121 22 q 113 21 105 18 q 97 15 90 12 q 82 8 77 6 q 71 1 62 1 q 52 1 44 4 q 35 8 30 15 q 26 22 32 31 q 44 52 58 76 q 73 99 88 123 q 104 147 120 170 q 135 192 150 210 l 168 229 q 145 231 126 241 q 108 251 90 252 q 81 252 71 245 q 61 238 51 228 q 41 219 33 208 q 25 198 20 191 q 18 189 14 191 q 11 193 8 196 q 4 199 2 202 q -1 205 0 207 q 7 217 17 229 q 27 241 38 252 q 50 263 64 270 q 77 277 91 277 q 113 276 132 266 q 152 255 174 254 q 189 254 201 261 q 213 268 225 277 q 229 280 236 278 q 244 276 250 270 q 255 264 256 254 q 258 245 251 235 q 233 221 218 208 q 204 194 190 177 q 172 154 152 125 q 133 96 114 67 q 134 71 152 67 q 171 63 182 43 q 231 76 272 116 q 312 155 350 206 z m -6 -321 q 13 -289 38 -248 q 62 -207 84 -164 q 107 -122 123 -82 q 139 -42 141 -12 q 125 -24 103 -41 q 81 -58 60 -74 q 40 -91 24 -104 q 7 -118 2 -124 q -46 -172 -43 -228 q -41 -273 -6 -321 z"},"B":{"x_min":0,"x_max":539,"ha":539,"o":"m 539 207 q 541 210 546 210 q 550 209 554 206 q 557 204 560 200 q 562 196 559 192 q 530 154 500 132 q 470 111 425 92 q 413 65 394 32 q 375 -2 351 -32 q 327 -61 297 -82 q 267 -102 233 -102 q 218 -102 204 -98 q 189 -93 178 -84 q 166 -76 159 -64 q 152 -51 152 -35 q 152 -7 168 14 q 184 34 208 48 q 231 62 258 70 q 285 78 306 83 q 330 88 355 95 q 380 102 406 112 q 411 123 416 148 q 422 174 423 200 q 424 226 416 245 q 408 264 387 264 q 367 264 356 252 q 344 241 329 229 q 321 221 313 226 q 305 230 300 239 q 294 248 292 258 q 291 268 297 273 q 322 294 352 329 q 382 364 408 403 q 434 442 451 480 q 468 517 468 543 q 468 557 462 569 q 455 581 438 581 q 415 581 390 569 q 365 557 342 540 q 319 522 300 502 q 280 481 267 464 q 232 420 210 371 q 188 322 171 272 q 154 221 138 169 q 123 117 103 67 q 99 56 89 54 q 79 53 69 56 q 59 60 51 67 q 43 74 43 80 q 70 149 92 216 q 114 283 133 350 q 152 416 168 484 q 185 552 200 624 q 203 632 212 638 q 221 645 231 648 q 241 651 250 648 q 258 646 259 637 q 249 588 236 533 q 223 478 208 421 q 218 437 228 452 q 237 466 247 480 q 263 501 286 524 q 308 547 334 566 q 359 585 387 598 q 415 610 444 610 q 480 610 498 587 q 516 564 515 532 q 515 509 505 480 q 495 451 479 420 q 463 389 442 358 q 420 326 397 298 q 413 296 424 288 q 435 279 442 266 q 448 254 450 238 q 453 223 453 207 q 453 184 449 163 q 445 142 439 127 q 473 145 494 162 q 516 178 539 207 z m 233 -77 q 260 -77 284 -60 q 308 -44 328 -20 q 349 5 364 32 q 380 59 391 80 q 370 73 350 68 q 331 63 311 58 q 295 55 272 48 q 249 41 228 30 q 207 19 192 3 q 177 -13 177 -34 q 177 -56 196 -66 q 214 -77 233 -77 z"},"K":{"x_min":0,"x_max":444,"ha":444,"o":"m 583 -58 q 584 -49 590 -44 q 595 -40 602 -40 q 609 -39 614 -42 q 620 -46 620 -55 q 620 -68 605 -76 q 590 -83 580 -88 q 540 -106 501 -105 q 446 -105 391 -78 q 336 -50 286 -6 q 237 37 196 90 q 155 143 128 194 q 109 119 96 52 q 82 -16 77 -69 q 72 -72 64 -74 q 55 -77 46 -78 q 37 -78 31 -74 q 25 -70 26 -59 q 33 10 48 87 q 64 164 84 242 q 105 319 130 394 q 154 468 179 534 q 177 535 168 540 q 160 545 162 547 q 178 572 194 596 q 210 621 227 645 q 232 655 241 654 q 250 654 258 648 q 266 643 271 635 q 276 627 274 623 q 253 582 234 536 q 216 489 200 440 q 183 392 168 344 q 154 295 142 250 q 205 267 254 296 q 303 326 344 366 q 384 406 418 454 q 451 503 483 559 q 487 564 494 566 q 501 567 506 563 q 507 557 509 546 q 511 535 514 523 q 517 511 521 501 q 525 491 530 487 q 531 487 530 483 q 529 479 527 474 q 525 470 522 466 q 520 463 519 464 q 509 469 502 480 q 494 491 489 504 q 457 452 422 408 q 387 363 345 327 q 303 291 252 265 q 202 239 140 224 q 156 192 180 157 q 203 122 231 88 q 259 54 292 24 q 324 -7 359 -30 q 394 -53 430 -66 q 466 -80 502 -80 q 546 -80 583 -58 z"},"R":{"x_min":0,"x_max":483,"ha":483,"o":"m 483 206 q 485 209 490 208 q 494 208 498 205 q 502 202 504 198 q 506 194 503 190 q 490 172 470 141 q 450 110 426 80 q 402 49 376 26 q 349 4 324 4 q 307 4 280 19 q 254 34 226 56 q 199 78 173 104 q 147 130 131 152 l 125 152 q 111 107 100 72 q 89 38 81 18 q 77 8 67 6 q 57 5 47 8 q 37 12 29 18 q 21 25 21 31 q 32 59 42 87 q 52 115 62 144 q 45 146 37 160 q 29 174 29 190 q 29 203 34 217 q 39 231 48 240 q 57 250 70 254 q 82 259 97 254 q 125 345 148 436 q 171 526 189 615 q 192 623 201 630 q 210 636 220 639 q 231 642 239 640 q 247 637 249 628 q 241 593 232 554 q 224 516 213 474 q 234 504 260 531 q 286 558 314 579 q 343 600 372 612 q 402 625 429 625 q 465 625 482 600 q 499 574 500 542 q 501 513 490 476 q 478 439 456 400 q 435 362 405 324 q 375 286 339 252 q 303 219 262 194 q 222 169 179 156 q 195 136 216 115 q 238 94 260 77 q 281 60 300 50 q 319 39 331 39 q 351 39 373 59 q 395 79 416 106 q 436 134 454 162 q 471 190 483 206 z m 157 187 q 193 195 228 216 q 264 238 296 268 q 329 297 357 332 q 385 367 406 402 q 427 438 439 471 q 451 504 452 530 q 453 554 442 574 q 432 594 408 594 q 378 594 342 570 q 307 546 276 511 q 244 476 220 437 q 195 398 186 367 q 175 328 164 289 q 153 250 142 211 q 147 204 150 198 q 153 192 157 187 z m 71 173 q 81 199 89 229 q 81 233 76 230 q 70 227 66 221 q 61 215 59 208 q 57 200 57 194 q 57 184 60 180 q 62 175 71 173 z"},"T":{"x_min":0,"x_max":446,"ha":446,"o":"m 445 584 q 452 587 461 585 q 470 583 474 576 q 479 569 477 558 q 475 546 462 529 q 420 482 400 424 q 379 367 367 306 q 355 246 346 186 q 337 126 317 75 q 297 24 260 -14 q 224 -52 158 -70 q 129 -66 124 -62 q 119 -57 123 -43 q 171 -35 202 -11 q 233 13 252 48 q 272 83 284 127 q 295 171 304 219 q 312 267 321 317 q 330 367 345 415 q 360 463 384 506 q 407 550 445 584 z m 710 657 q 718 658 724 652 q 729 647 728 639 q 727 631 720 625 q 714 619 706 619 q 698 619 694 622 q 681 616 664 612 q 647 609 629 607 q 611 605 593 604 q 575 603 560 603 q 499 604 444 610 q 389 616 336 616 q 287 616 232 600 q 177 585 131 556 q 85 526 55 483 q 25 440 25 383 q 25 350 46 330 q 67 311 89 311 q 123 311 151 338 q 179 366 185 435 q 178 438 176 445 q 174 452 176 459 q 177 466 182 471 q 186 476 193 476 q 200 476 206 468 q 211 461 211 450 q 210 405 200 374 q 189 343 172 324 q 156 304 134 295 q 113 286 90 286 q 74 286 58 292 q 42 299 29 312 q 16 324 8 342 q 0 360 0 383 q 0 428 16 465 q 32 502 60 531 q 87 560 123 582 q 159 603 200 617 q 240 631 282 638 q 323 645 361 645 q 406 645 452 642 q 497 639 548 639 q 557 639 570 640 q 584 640 598 641 q 612 642 626 644 q 639 645 649 647 q 667 650 680 653 q 693 656 710 657 z"},"P":{"x_min":0,"x_max":494,"ha":494,"o":"m 470 686 q 491 686 506 678 q 520 669 530 653 q 539 637 544 614 q 549 592 549 566 q 549 528 540 484 q 532 440 516 396 q 501 352 480 312 q 458 271 432 240 q 405 209 376 190 q 346 171 315 171 q 297 171 284 179 q 271 187 263 200 q 255 214 251 232 q 247 249 247 266 q 247 272 248 282 q 249 292 252 302 q 254 311 259 318 q 264 325 272 325 q 278 325 282 320 q 285 315 286 308 q 286 302 284 296 q 281 289 275 286 q 274 281 274 276 q 273 271 273 266 q 273 255 275 244 q 277 232 281 223 q 285 214 292 208 q 298 202 308 202 q 340 202 373 239 q 406 276 433 331 q 460 386 478 448 q 495 509 497 558 q 498 598 486 623 q 474 648 445 648 q 428 648 409 637 q 390 626 372 610 q 355 594 340 576 q 325 559 315 546 q 291 517 270 485 q 248 453 230 421 q 212 389 198 360 q 183 331 174 308 q 161 260 148 216 q 136 171 125 133 q 114 95 104 66 q 94 36 87 18 q 83 8 72 6 q 62 5 52 8 q 41 12 32 18 q 24 25 24 31 q 78 171 120 321 q 162 471 192 615 q 195 623 204 630 q 213 636 224 639 q 234 642 242 640 q 250 637 252 628 q 242 584 230 532 q 219 481 205 427 q 225 461 248 496 q 270 530 295 562 q 308 578 328 599 q 348 620 372 640 q 395 659 420 672 q 446 686 470 686 z"},"|":{"x_min":0,"x_max":225,"ha":225,"o":"m 70 39 q 68 30 62 28 q 57 25 51 26 q 45 28 40 32 q 35 37 36 42 l 133 596 q 134 604 140 606 q 146 608 152 606 q 158 605 162 600 q 167 595 166 588 z"},"t":{"x_min":0,"x_max":231,"ha":231,"o":"m 231 206 q 233 209 238 208 q 242 208 246 205 q 250 202 252 198 q 254 194 251 190 q 232 165 205 132 q 178 100 148 71 q 117 42 86 22 q 54 2 27 2 q 6 2 -9 18 q -24 34 -22 73 q -20 99 -12 130 q -5 162 7 195 q 3 198 0 201 q -2 204 0 206 q 7 217 20 231 q 36 269 54 308 q 72 347 91 383 l 55 383 q 53 383 52 387 q 51 391 51 396 q 51 400 52 404 q 54 408 57 408 l 104 408 q 116 431 129 454 q 142 478 153 502 q 163 508 174 506 q 184 505 190 500 q 197 495 200 486 q 202 478 196 471 q 188 455 179 440 q 170 425 162 409 q 176 410 188 410 q 200 410 209 410 q 210 410 211 406 q 212 402 212 397 q 212 392 211 388 q 210 384 207 384 l 149 384 q 129 345 108 301 q 87 257 70 214 q 52 171 40 132 q 29 92 29 62 q 29 36 43 36 q 62 36 89 56 q 116 77 144 105 q 171 133 195 161 q 219 189 231 206 z"},"M":{"x_min":0,"x_max":526,"ha":526,"o":"m 483 604 q 494 604 502 598 q 509 592 513 583 q 517 574 518 564 q 520 553 520 544 q 520 512 511 467 q 502 422 488 370 q 473 318 455 263 q 437 208 420 156 q 402 104 386 59 q 370 14 360 -17 q 355 -31 346 -32 q 337 -34 328 -30 q 319 -26 312 -20 q 306 -13 307 -11 q 308 9 308 28 q 307 46 306 66 q 306 68 318 68 q 329 67 332 67 q 340 94 354 134 q 367 173 382 218 q 397 262 412 310 q 428 357 441 402 q 454 447 462 486 q 469 524 469 551 q 469 558 467 558 q 465 558 453 543 q 430 511 409 476 q 388 441 368 406 q 347 371 326 337 q 305 303 281 272 q 276 266 268 258 q 261 250 252 246 q 244 241 236 244 q 227 246 222 261 q 214 314 206 364 q 199 415 189 468 q 158 378 134 290 q 111 203 83 112 q 79 104 75 103 q 71 102 66 104 q 61 101 54 101 q 48 101 42 103 q 36 105 32 109 q 28 113 30 119 q 50 183 68 247 q 87 311 107 375 q 113 397 120 422 q 128 447 136 472 q 144 497 153 521 q 162 545 172 565 q 182 571 192 570 q 202 570 210 565 q 217 560 220 552 q 223 545 220 538 q 227 514 234 478 q 240 441 246 404 q 251 366 254 334 q 258 302 260 287 l 270 301 q 314 364 352 431 q 389 498 435 560 q 438 564 444 572 q 449 579 456 586 q 462 594 469 599 q 476 604 483 604 z"},"g":{"x_min":0,"x_max":374,"ha":374,"o":"m 374 206 q 376 209 380 208 q 385 208 389 205 q 393 202 395 198 q 397 194 394 190 q 368 156 344 128 q 319 99 292 74 q 266 49 236 27 q 206 5 169 -15 q 127 -109 88 -206 q 49 -302 16 -399 q 14 -405 6 -408 q -3 -411 -12 -410 q -21 -408 -28 -403 q -36 -398 -36 -387 q -56 -355 -68 -317 q -79 -279 -79 -242 q -79 -217 -74 -198 q -70 -180 -62 -165 q -53 -147 -32 -126 q -10 -105 16 -84 q 41 -64 66 -46 q 91 -28 108 -17 l 144 65 q 112 35 76 15 q 41 -5 7 -6 q -24 -6 -36 14 q -47 35 -48 62 q -50 98 -34 140 q -18 183 10 220 q 38 256 74 281 q 110 306 149 307 q 157 307 168 306 q 179 304 189 300 q 199 296 206 289 q 213 282 213 272 q 213 260 206 253 q 198 246 189 245 q 180 244 172 250 q 163 255 161 267 q 135 268 107 246 q 79 224 56 192 q 34 159 20 124 q 6 89 7 65 q 8 52 14 42 q 19 31 34 31 q 53 32 76 46 q 98 60 120 80 q 142 101 160 126 q 179 150 191 172 q 205 196 216 222 q 227 248 241 272 q 251 278 262 276 q 273 275 281 270 q 289 265 292 256 q 295 248 289 241 q 261 187 236 134 q 211 81 186 25 q 243 61 288 105 q 332 149 374 206 z m -24 -347 q -14 -321 -2 -288 q 11 -255 25 -218 q 39 -182 54 -144 q 70 -106 85 -69 q 73 -78 56 -92 q 38 -105 20 -120 q 2 -135 -14 -150 q -29 -166 -36 -179 q -43 -191 -46 -206 q -50 -221 -49 -241 q -49 -268 -42 -296 q -35 -323 -24 -347 z"},"j":{"x_min":0,"x_max":230,"ha":230,"o":"m 230 206 q 232 209 236 208 q 241 208 245 205 q 249 202 251 198 q 253 194 250 190 q 224 156 200 128 q 175 99 148 74 q 121 49 91 27 q 61 5 24 -15 q -14 -102 -51 -190 q -88 -279 -119 -369 q -121 -376 -130 -378 q -139 -381 -148 -380 q -157 -378 -164 -372 q -172 -366 -171 -355 q -182 -337 -192 -324 q -203 -311 -212 -298 q -221 -284 -228 -266 q -234 -249 -238 -222 q -241 -201 -218 -173 q -196 -145 -164 -116 q -131 -86 -95 -58 q -59 -31 -35 -13 q -19 24 -2 63 q 16 102 32 139 q 49 176 64 209 q 80 242 92 267 q 72 251 54 230 q 35 210 21 190 q 19 188 16 190 q 12 191 8 194 q 4 197 2 200 q -1 204 0 206 q 7 215 22 232 q 37 250 54 267 q 71 284 88 296 q 106 309 119 309 q 125 309 132 306 q 140 302 146 296 q 153 291 156 284 q 160 278 157 272 q 148 255 135 228 q 122 202 107 169 q 92 136 75 99 q 58 62 42 25 q 99 61 144 105 q 188 149 230 206 z m -160 -322 q -143 -273 -116 -208 q -90 -143 -61 -74 q -128 -126 -170 -164 q -211 -203 -208 -223 q -205 -242 -200 -256 q -196 -269 -190 -280 q -183 -292 -176 -302 q -168 -311 -160 -322 z m 158 341 q 146 339 136 346 q 125 354 123 367 q 121 380 128 390 q 135 401 147 403 q 159 405 170 398 q 180 391 182 377 q 184 364 177 354 q 170 343 158 341 z"},"i":{"x_min":0,"x_max":185,"ha":185,"o":"m 185 206 q 187 209 192 208 q 196 208 200 205 q 204 202 206 198 q 208 194 205 190 q 197 180 182 162 q 167 144 148 122 q 128 101 106 79 q 83 57 62 40 q 40 22 20 10 q 1 -1 -13 0 q -48 1 -52 36 q -54 48 -50 67 q -46 86 -38 108 q -31 130 -20 154 q -10 178 1 201 q 0 203 0 206 l 10 218 l 46 291 q 56 297 68 296 q 79 295 88 290 q 96 285 99 276 q 102 268 96 261 q 85 240 68 209 q 52 178 36 146 q 20 114 9 86 q -2 57 -1 40 q 21 48 48 68 q 74 88 100 112 q 126 137 148 162 q 171 187 185 206 z m 119 334 q 107 332 97 339 q 87 346 85 360 q 82 373 89 384 q 96 394 108 396 q 120 398 130 390 q 141 383 143 370 q 145 357 138 346 q 131 336 119 334 z"},"y":{"x_min":0,"x_max":388,"ha":388,"o":"m 388 206 q 390 209 394 208 q 399 208 403 205 q 407 202 409 198 q 411 194 408 190 q 382 156 358 128 q 333 99 306 74 q 280 49 250 27 q 220 5 183 -15 q 145 -102 108 -190 q 70 -279 40 -369 q 37 -376 28 -378 q 20 -381 10 -380 q 1 -378 -6 -372 q -13 -366 -12 -355 q -18 -346 -24 -338 q -31 -330 -37 -322 q -54 -301 -68 -278 q -81 -256 -86 -222 q -88 -206 -76 -187 q -63 -168 -40 -146 q -16 -123 16 -98 q 48 -72 85 -43 l 124 -13 q 138 18 150 48 q 163 78 177 106 q 157 82 136 58 q 114 35 91 16 q 68 -3 46 -15 q 23 -27 2 -27 q -21 -27 -36 -12 q -52 3 -56 26 q -61 56 -52 90 q -44 124 -28 156 q -12 189 8 218 q 29 247 48 269 q 55 279 66 280 q 78 281 88 276 q 98 272 102 263 q 107 254 100 245 q 84 226 64 199 q 44 172 28 142 q 11 112 1 82 q -9 52 -5 28 q -1 7 13 9 q 28 9 50 24 q 71 39 95 62 q 119 86 143 115 q 167 144 188 174 q 210 203 226 229 q 243 255 252 272 q 262 278 274 276 q 285 275 294 270 q 302 265 306 256 q 309 248 303 241 q 275 187 250 134 q 225 81 200 25 q 257 61 302 105 q 346 149 388 206 z m -2 -322 q 16 -273 42 -208 q 68 -143 98 -74 q 64 -100 36 -122 q 7 -145 -14 -164 q -35 -183 -46 -198 q -58 -213 -56 -223 q -52 -250 -40 -268 q -28 -287 -14 -306 z"},"@":{"x_min":0,"x_max":528,"ha":528,"o":"m 282 264 q 258 266 236 251 q 215 236 200 212 q 185 189 177 163 q 169 137 172 118 q 173 110 182 114 q 192 119 204 128 q 215 137 226 147 q 236 157 238 159 q 265 188 292 224 q 318 260 335 296 q 343 301 352 300 q 361 300 368 296 q 374 291 376 284 q 379 278 375 272 q 369 260 359 242 q 349 225 338 205 q 328 185 320 165 q 311 145 307 130 q 304 116 310 109 q 317 102 328 100 q 339 98 352 101 q 364 104 373 112 q 392 128 409 157 q 426 186 436 220 q 447 255 450 291 q 453 327 444 358 q 436 388 414 409 q 392 430 354 434 q 307 439 266 424 q 226 408 192 378 q 159 349 135 310 q 111 270 98 227 q 85 184 84 142 q 82 100 96 65 q 109 30 138 6 q 166 -18 212 -24 q 237 -27 260 -23 q 283 -19 309 0 q 314 4 320 2 q 326 1 330 -4 q 333 -8 332 -14 q 332 -20 325 -25 q 295 -43 264 -50 q 233 -56 203 -52 q 147 -45 112 -18 q 76 9 59 49 q 42 89 42 137 q 42 185 56 234 q 71 282 99 326 q 127 371 166 404 q 206 437 255 454 q 304 470 361 462 q 406 456 432 432 q 459 407 470 372 q 482 338 480 298 q 477 257 464 218 q 452 178 431 145 q 410 112 384 92 q 366 78 344 72 q 323 67 304 71 q 286 75 274 88 q 262 100 264 122 q 264 138 272 159 l 256 142 q 234 119 212 102 q 191 86 174 85 q 137 84 131 122 q 127 149 137 182 q 147 214 167 242 q 187 270 215 288 q 243 307 274 307 q 287 307 302 303 q 318 299 318 282 q 318 268 306 262 q 293 256 282 264 z"},".":{"x_min":0,"x_max":262,"ha":262,"o":"m 69 55 q 80 55 88 47 q 95 39 94 28 q 93 17 84 9 q 76 1 65 1 q 54 1 46 9 q 39 17 40 28 q 41 39 50 47 q 58 55 69 55 z"},"p":{"x_min":0,"x_max":356,"ha":356,"o":"m 356 206 q 358 209 362 208 q 367 208 371 205 q 375 202 377 198 q 379 194 376 190 q 368 180 353 160 q 338 140 318 116 q 299 92 276 66 q 254 41 232 20 q 211 0 192 -14 q 172 -27 158 -26 q 123 -25 119 9 q 116 27 127 60 q 138 94 154 131 q 171 168 188 202 q 206 236 217 256 q 191 254 159 230 q 127 206 95 173 q 63 140 35 104 q 7 67 -10 40 q -54 -63 -96 -164 q -137 -264 -173 -369 q -176 -376 -186 -378 q -196 -381 -206 -378 q -215 -376 -222 -368 q -228 -360 -223 -346 l -195 -267 q -183 -190 -149 -111 q -115 -32 -73 34 q -47 94 -22 154 q 3 215 31 272 q 41 278 52 276 q 64 275 72 270 q 80 265 84 256 q 87 248 81 241 q 70 218 59 195 q 48 172 37 149 q 58 175 82 199 q 106 223 131 242 q 156 260 180 271 q 204 282 227 282 q 244 282 260 275 q 275 268 275 251 q 275 247 273 241 q 264 225 246 193 q 229 161 212 126 q 195 91 182 60 q 170 28 170 14 q 192 22 218 46 q 245 70 271 99 q 297 128 320 158 q 342 187 356 206 z"},"X":{"x_min":0,"x_max":388,"ha":388,"o":"m 488 612 q 490 603 482 595 q 474 587 464 589 q 445 569 417 536 q 389 502 356 459 q 323 416 287 367 q 251 318 216 268 q 226 229 236 190 q 246 152 255 118 q 264 84 272 58 q 281 31 289 15 q 282 12 274 8 q 265 5 257 4 q 249 3 242 6 q 235 9 231 19 q 217 60 204 110 q 192 160 179 213 q 159 184 136 147 q 112 110 92 74 q 71 37 56 5 q 42 -27 42 -45 q 42 -54 38 -60 q 34 -65 30 -66 q 25 -67 21 -62 q 17 -57 17 -45 q 17 -23 34 14 q 50 52 74 94 q 97 135 124 176 q 150 216 171 246 q 156 307 140 362 q 125 417 106 455 q 104 457 102 464 q 101 471 104 476 q 100 484 100 495 q 99 506 102 516 q 104 526 110 532 q 115 537 122 535 q 132 529 142 508 q 153 486 164 454 q 175 422 186 382 q 197 342 208 299 q 229 329 254 364 q 280 400 307 436 q 334 473 360 507 q 387 541 410 568 q 432 594 449 610 q 466 626 473 626 q 486 626 488 612 z"},"*":{"x_min":0,"x_max":274,"ha":274,"o":"m 242 576 q 248 580 254 578 q 260 577 264 572 q 268 568 268 562 q 269 557 263 553 l 198 505 l 240 475 q 244 472 244 466 q 245 461 242 456 q 240 451 236 448 q 232 446 228 449 l 188 478 l 189 427 q 189 421 185 417 q 181 413 176 412 q 171 410 167 411 q 163 412 163 417 l 162 478 l 94 429 q 88 425 83 426 q 78 427 74 431 q 71 435 70 440 q 70 445 75 449 l 147 503 l 98 538 q 93 541 93 547 q 93 553 95 558 q 97 562 101 564 q 105 567 110 564 l 154 532 l 153 582 q 153 588 157 592 q 161 597 166 598 q 171 600 176 598 q 180 597 180 591 l 181 529 l 242 576 z"},"Y":{"x_min":0,"x_max":362,"ha":362,"o":"m 324 526 q 328 531 339 528 q 350 525 361 519 q 372 513 380 505 q 388 497 387 492 q 371 460 350 412 q 329 364 308 307 q 286 250 266 188 q 245 127 230 69 q 214 11 206 -39 q 197 -89 199 -123 q 199 -126 192 -130 q 186 -134 177 -136 q 168 -139 159 -138 q 150 -136 147 -127 q 145 -91 152 -42 q 159 6 173 60 q 187 113 205 170 q 223 227 242 280 q 261 333 280 380 q 299 427 314 461 q 289 420 254 368 q 218 317 183 272 q 174 261 160 244 q 147 227 130 211 q 114 195 97 184 q 80 172 65 171 q 41 170 32 192 q 24 215 24 245 q 24 274 32 323 q 39 372 50 425 q 61 478 74 526 q 88 575 100 603 q 101 606 108 606 q 116 607 124 604 q 132 602 137 596 q 142 591 139 582 q 127 554 114 506 q 102 459 92 408 q 82 356 76 308 q 69 260 69 232 q 69 230 70 225 q 70 220 70 215 q 71 210 72 206 q 73 201 74 201 q 81 201 94 212 q 107 224 121 239 q 135 254 147 268 q 159 282 163 287 q 187 318 212 354 q 237 390 259 423 q 281 456 298 484 q 315 511 324 526 z"},"c":{"x_min":0,"x_max":286,"ha":286,"o":"m 286 206 q 288 209 292 208 q 297 208 301 205 q 305 202 307 198 q 309 194 306 190 q 283 160 255 125 q 227 90 194 60 q 160 31 122 12 q 85 -8 43 -8 q 8 -8 -14 16 q -35 41 -37 73 q -39 110 -24 153 q -9 196 18 233 q 44 270 80 295 q 115 320 155 321 q 163 321 175 319 q 187 317 198 312 q 209 306 217 298 q 225 290 225 278 q 225 266 218 259 q 210 252 200 251 q 191 250 182 254 q 173 259 170 271 q 167 272 159 272 q 134 272 109 251 q 84 230 64 200 q 44 170 32 136 q 20 102 21 76 q 23 55 36 46 q 49 36 69 35 q 102 35 134 53 q 165 71 193 97 q 221 123 245 153 q 269 183 286 206 z"},"!":{"x_min":0,"x_max":395,"ha":395,"o":"m 118 90 q 131 88 137 78 q 143 67 138 55 q 133 42 120 34 q 108 27 95 29 q 81 31 76 42 q 70 52 75 65 q 80 77 92 84 q 105 92 118 90 z m 277 547 q 298 543 302 530 q 305 517 300 503 q 282 460 268 428 q 254 395 242 368 q 231 341 221 318 q 211 294 200 268 q 190 243 178 212 q 166 182 151 142 q 149 137 142 136 q 136 134 130 136 q 123 137 118 140 q 114 144 116 150 q 119 161 130 195 q 140 229 154 274 q 168 319 185 368 q 202 417 219 458 q 236 498 251 524 q 266 549 277 547 z"},"/":{"x_min":0,"x_max":190,"ha":190,"o":"m 70 39 q 68 30 62 28 q 57 25 51 26 q 45 28 40 32 q 35 37 36 42 l 133 596 q 134 604 140 606 q 146 608 152 606 q 158 605 162 600 q 167 595 166 588 z"},"[":{"x_min":0,"x_max":296,"ha":296,"o":"m 223 697 l 366 697 q 371 697 374 693 q 376 689 376 684 q 375 680 372 676 q 369 673 365 673 l 266 673 l 100 -53 l 190 -53 q 198 -53 198 -62 q 198 -70 188 -70 q 176 -70 154 -70 q 131 -70 108 -70 q 86 -71 68 -72 q 50 -72 48 -72 z"},"6":{"x_min":0,"x_max":306,"ha":306,"o":"m 229 419 q 208 416 186 394 q 165 372 146 344 q 127 315 112 286 q 97 256 90 236 q 103 246 118 256 q 132 267 146 276 q 160 285 172 290 q 184 296 192 296 q 202 296 214 288 q 225 281 234 270 q 244 258 251 246 q 258 233 258 224 q 259 191 248 155 q 236 119 218 92 q 212 83 200 68 q 188 53 173 39 q 158 25 142 14 q 127 4 114 4 q 92 3 76 14 q 59 25 47 43 q 22 81 20 126 q 17 171 28 214 q 36 243 52 282 q 69 321 92 358 q 115 395 144 424 q 172 452 204 460 q 219 464 228 454 q 237 445 237 435 q 237 421 229 419 z m 76 192 q 69 162 70 128 q 72 95 87 67 q 92 57 100 50 q 109 44 114 44 q 123 44 134 52 q 146 59 156 70 q 167 81 176 92 q 185 103 190 110 q 205 133 218 164 q 230 195 230 224 q 230 229 226 237 q 221 245 216 252 q 210 260 204 266 q 197 271 192 271 q 185 271 169 262 q 153 252 135 239 q 117 226 100 212 q 84 199 76 192 z"},"r":{"x_min":0,"x_max":247,"ha":247,"o":"m 247 206 q 250 210 254 210 q 259 209 263 206 q 267 203 268 198 q 270 194 267 190 q 252 170 226 138 q 200 105 170 74 q 139 43 108 20 q 76 -3 50 -3 q 29 -3 12 6 q -6 16 -6 40 q -6 61 10 87 q 27 113 47 138 q 67 164 83 186 q 99 209 99 224 q 97 226 84 226 q 71 227 54 231 q 44 220 36 210 q 27 199 21 191 q 19 189 16 190 q 12 191 8 194 q 4 197 2 200 q -1 204 0 206 q 11 220 28 239 q 11 246 0 258 q -11 269 -11 289 q -11 304 -2 318 q 6 332 18 342 q 31 353 47 361 q 63 369 78 372 q 99 377 116 370 q 132 363 130 338 q 128 324 116 307 q 105 290 89 271 q 101 269 112 266 q 123 263 132 258 q 140 252 146 244 q 151 236 151 223 q 151 200 135 174 q 119 148 99 123 q 79 98 62 76 q 46 54 46 39 q 46 32 53 32 q 75 32 103 52 q 131 73 159 102 q 187 130 210 160 q 234 189 247 206 z m 24 302 q 24 290 34 284 q 45 279 60 276 q 77 296 90 313 q 103 330 104 341 q 105 349 97 349 q 89 349 77 346 q 65 342 53 336 q 41 329 32 320 q 24 311 24 302 z"},"2":{"x_min":0,"x_max":363,"ha":363,"o":"m 73 244 q 70 254 70 265 q 70 289 90 322 q 110 356 138 387 q 166 418 198 439 q 229 460 252 460 q 266 460 281 446 q 296 433 308 415 q 321 397 329 378 q 337 359 337 346 q 337 322 317 294 q 297 265 270 236 q 243 208 214 184 q 186 159 170 143 l 85 64 q 103 65 116 60 q 129 54 143 46 q 156 39 171 33 q 186 27 208 28 q 213 28 220 31 q 228 34 236 38 q 243 43 250 48 q 256 52 260 55 q 268 61 274 61 q 281 61 284 57 q 287 53 285 47 q 283 41 275 35 q 262 25 244 14 q 226 3 209 2 q 181 2 164 9 q 146 16 131 24 q 120 29 110 34 q 100 38 86 38 q 74 38 64 33 q 53 28 44 22 q 35 15 28 10 q 20 5 13 5 q 5 5 -2 10 q -8 14 -12 22 q -15 29 -14 38 q -13 46 -6 52 q 6 62 22 77 q 39 92 58 110 q 76 127 96 146 q 116 164 134 181 q 148 194 176 218 q 203 241 231 268 q 259 294 280 320 q 301 346 301 365 q 301 371 296 382 q 290 394 282 406 q 274 417 266 426 q 257 435 251 435 q 234 435 208 416 q 181 396 156 369 q 131 342 113 312 q 95 283 95 264 q 95 257 98 250 q 100 243 97 238 q 94 233 90 232 q 85 230 80 233 q 75 236 73 244 z"},"{":{"x_min":0,"x_max":294,"ha":294,"o":"m 140 317 q 150 318 156 324 q 163 329 168 338 q 177 356 184 385 q 191 414 198 448 q 206 483 217 520 q 228 557 245 590 q 263 627 291 656 q 319 685 361 698 q 375 703 377 696 q 379 688 366 682 q 347 674 332 656 q 317 638 303 613 q 285 579 274 544 q 262 510 252 476 q 242 443 232 412 q 221 380 206 351 q 198 335 186 322 q 174 310 160 304 q 170 295 174 281 q 177 267 177 250 q 176 219 168 192 q 160 164 150 136 q 141 108 133 78 q 125 48 124 12 q 123 -15 128 -32 q 134 -49 147 -61 q 156 -70 151 -76 q 146 -82 135 -74 q 103 -50 91 -20 q 79 11 81 50 q 83 86 94 118 q 104 150 116 178 q 128 206 138 230 q 148 253 148 273 q 150 293 134 300 q 124 304 126 310 q 129 317 140 317 z"},"9":{"x_min":0,"x_max":269,"ha":269,"o":"m 79 4 q 68 5 57 12 q 46 20 36 30 q 25 41 16 52 q 7 63 1 72 q -1 75 1 79 q 3 83 7 86 q 11 88 16 88 q 21 88 24 84 q 32 73 44 61 q 56 49 67 44 q 76 46 87 57 q 98 68 108 84 q 119 101 129 122 q 139 143 147 165 q 150 173 156 195 q 163 217 170 246 q 176 274 182 305 q 187 336 187 362 q 187 391 179 410 q 171 430 150 431 q 127 432 109 413 q 91 394 82 374 q 72 352 68 330 q 63 308 62 289 q 60 256 78 230 q 96 205 122 187 q 128 183 129 178 q 130 172 128 168 q 125 164 120 162 q 115 161 109 165 q 77 187 56 218 q 35 249 37 289 q 38 310 43 335 q 48 360 59 384 q 65 399 75 413 q 85 427 97 438 q 109 449 124 456 q 138 462 155 462 q 179 462 195 452 q 211 443 220 427 q 230 411 234 391 q 238 371 238 349 q 237 305 226 252 q 216 200 196 147 q 191 132 180 108 q 168 83 152 60 q 136 36 118 20 q 99 3 79 4 z"}," ":{"x_min":0,"x_max":200,"ha":200,"o":""},"I":{"x_min":0,"x_max":489,"ha":489,"o":"m 476 540 q 476 515 472 473 q 467 431 457 380 q 447 328 432 270 q 417 213 397 157 q 377 101 352 50 q 327 -1 296 -40 q 266 -80 230 -103 q 194 -126 153 -127 q 124 -127 103 -120 q 82 -112 68 -100 q 53 -89 46 -76 q 39 -64 39 -54 q 39 -37 54 -37 q 64 -37 70 -47 q 75 -57 71 -66 q 81 -83 100 -90 q 119 -96 139 -96 q 183 -97 220 -62 q 258 -26 290 31 q 321 88 346 160 q 371 232 388 306 q 405 379 414 446 q 423 513 424 560 q 424 595 420 616 q 415 636 404 637 q 392 638 378 626 q 364 613 350 596 q 337 580 326 563 q 316 546 312 537 q 303 519 294 496 q 284 474 277 449 q 270 424 266 398 q 261 371 261 346 q 260 305 275 272 q 290 238 328 219 q 336 221 344 215 q 352 209 352 200 q 352 194 348 190 q 343 185 336 185 q 323 187 319 195 q 273 217 254 256 q 236 295 235 344 q 235 398 252 454 q 269 509 289 549 q 298 565 312 585 q 325 605 342 623 q 358 641 377 654 q 396 666 416 666 q 434 666 445 656 q 456 646 463 629 q 470 612 473 589 q 476 566 476 540 z"},"H":{"x_min":0,"x_max":639,"ha":639,"o":"m 612 277 q 615 277 618 273 q 620 269 620 264 q 620 260 618 256 q 616 252 611 252 q 589 250 568 250 q 547 251 525 253 q 511 181 502 114 q 493 47 492 -4 q 492 -35 496 -59 q 499 -83 507 -97 q 505 -100 502 -110 q 500 -119 496 -128 q 492 -136 486 -140 q 479 -144 470 -135 q 456 -115 450 -82 q 445 -48 445 -5 q 445 51 454 118 q 462 185 475 257 q 429 261 384 265 q 339 269 294 267 q 289 220 279 170 q 269 121 250 80 q 231 40 202 14 q 173 -12 129 -12 q 86 -11 62 17 q 39 45 39 86 q 39 125 57 160 q 75 195 104 222 q 134 249 170 266 q 207 284 243 289 q 246 320 250 367 q 253 414 259 462 q 265 510 274 552 q 284 594 301 614 q 318 636 343 636 q 368 636 388 617 q 393 611 402 599 q 411 587 411 579 q 411 571 407 566 q 403 561 396 561 q 386 561 381 570 q 376 579 379 588 q 375 594 367 602 q 359 609 351 609 q 342 609 334 590 q 327 571 322 540 q 316 510 312 473 q 308 436 305 400 q 302 365 300 336 q 297 307 296 293 q 342 294 388 290 q 433 286 479 281 q 492 347 506 411 q 521 475 535 531 q 549 587 560 631 q 572 675 579 701 q 578 707 584 710 q 591 714 600 714 q 608 714 616 708 q 625 703 629 690 q 623 667 612 624 q 600 581 586 526 q 573 470 558 406 q 543 342 530 278 q 550 276 571 276 q 592 276 612 277 z m 116 15 q 144 15 165 38 q 186 61 200 97 q 215 133 224 177 q 234 221 239 263 q 207 258 176 242 q 145 226 120 202 q 96 178 82 147 q 67 116 67 82 q 67 70 70 58 q 72 47 78 37 q 84 27 93 21 q 102 15 116 15 z"},"4":{"x_min":0,"x_max":353,"ha":353,"o":"m 294 335 q 283 298 267 260 q 251 221 236 186 q 256 197 274 211 q 292 225 308 242 q 312 246 316 245 q 321 244 324 240 q 328 237 328 232 q 329 227 325 223 q 303 201 276 182 q 250 162 221 151 q 204 114 192 83 q 180 52 178 29 q 177 18 169 11 q 161 4 152 2 q 142 -1 134 2 q 127 6 127 17 q 125 46 136 80 q 148 114 165 153 q 137 163 113 166 q 89 168 62 150 q 57 145 50 148 q 43 151 36 157 q 30 163 26 170 q 23 177 25 180 q 76 243 112 307 q 149 371 172 450 q 174 457 182 460 q 191 462 200 460 q 209 459 216 454 q 222 448 220 440 q 200 368 168 308 q 136 247 93 190 q 116 194 135 189 q 154 184 175 176 q 193 217 212 262 q 232 306 243 348 q 245 356 254 360 q 264 364 274 363 q 284 362 290 356 q 297 349 294 335 z"},"~":{"x_min":0,"x_max":474,"ha":474,"o":"m 88 146 q 117 168 138 171 q 160 174 178 168 q 195 163 210 154 q 225 144 242 140 q 258 135 278 140 q 297 145 323 170 q 327 174 332 173 q 336 172 339 168 q 342 164 342 159 q 343 154 339 150 q 307 120 284 111 q 260 102 241 104 q 222 107 206 116 q 191 126 175 133 q 159 140 142 140 q 124 140 102 124 q 97 121 93 123 q 89 125 86 129 q 84 133 84 138 q 84 143 88 146 z"},"D":{"x_min":0,"x_max":620,"ha":620,"o":"m 486 612 q 511 612 529 600 q 547 589 558 568 q 570 547 576 518 q 581 488 581 453 q 581 398 568 336 q 556 275 533 214 q 510 154 478 98 q 445 43 404 1 q 363 -41 315 -66 q 267 -92 213 -92 q 164 -93 127 -72 q 90 -50 57 -17 q 49 -9 50 2 q 51 12 63 13 q 73 15 80 8 q 88 0 86 -10 q 110 -31 136 -43 q 163 -55 198 -55 q 247 -55 290 -30 q 334 -6 370 34 q 407 75 436 128 q 466 180 486 236 q 507 293 518 350 q 529 406 529 455 q 529 510 514 544 q 500 579 464 580 q 446 580 426 568 q 405 557 385 540 q 365 522 346 502 q 328 481 314 463 q 286 428 266 388 q 245 349 229 308 q 213 267 199 226 q 185 185 169 147 q 165 136 155 134 q 145 133 135 136 q 125 140 117 147 q 109 154 109 160 q 127 206 140 242 q 154 279 164 310 q 175 341 184 370 q 193 399 201 431 q 209 463 217 500 q 225 537 235 585 q 238 593 248 600 q 257 606 267 609 q 277 612 285 610 q 293 607 295 598 q 290 572 285 550 q 280 529 276 509 q 271 489 266 468 q 260 447 254 423 q 264 439 273 452 q 282 466 293 480 q 309 501 332 524 q 355 547 380 566 q 406 586 434 599 q 461 612 486 612 z"},"^":{"x_min":0,"x_max":344,"ha":344,"o":"m 178 338 q 173 333 167 332 q 161 332 156 335 q 152 338 152 344 q 151 349 157 356 q 172 372 190 392 q 209 412 226 427 q 232 432 241 435 q 250 438 258 439 q 264 439 268 436 q 273 433 272 427 q 272 410 270 394 q 267 377 267 361 q 267 354 262 350 q 256 346 250 344 q 243 343 238 345 q 232 347 232 353 q 232 362 231 371 q 230 380 229 389 q 215 376 202 362 q 188 349 178 338 z"},"0":{"x_min":0,"x_max":315,"ha":315,"o":"m 203 459 q 217 458 229 451 q 241 444 250 433 q 270 408 274 380 q 279 352 276 322 q 273 279 260 231 q 248 183 229 141 q 223 127 212 104 q 200 81 185 59 q 170 37 152 21 q 134 5 116 5 q 94 5 76 19 q 57 33 43 53 q 21 85 11 118 q 1 152 4 191 q 7 228 21 276 q 35 323 60 365 q 86 407 122 435 q 158 463 203 459 z m 122 48 q 141 53 162 80 q 184 107 204 152 q 222 194 235 240 q 248 285 251 327 q 253 353 246 377 q 240 401 223 420 q 192 418 168 404 q 143 391 124 370 q 106 349 92 322 q 79 295 70 266 q 55 219 55 171 q 56 147 62 124 q 69 100 86 77 q 94 66 104 58 q 114 49 122 48 z"},"F":{"x_min":0,"x_max":441,"ha":441,"o":"m 374 301 q 377 305 386 305 q 395 305 404 302 q 413 299 419 294 q 425 289 423 284 q 420 277 415 264 q 410 251 406 236 q 401 222 398 208 q 394 193 395 184 q 395 178 390 171 q 386 164 380 160 q 373 155 366 154 q 359 153 356 158 q 342 180 348 212 q 353 243 363 271 q 342 261 306 238 q 270 214 232 191 q 218 132 202 74 q 185 15 164 -38 q 143 -90 116 -134 q 88 -178 52 -208 q 49 -210 42 -206 q 35 -202 28 -194 q 22 -187 20 -178 q 18 -170 26 -162 q 48 -138 65 -98 q 82 -58 92 -12 q 101 33 104 78 q 106 123 99 156 q 89 164 79 176 q 69 189 69 203 q 67 216 82 216 q 97 216 108 200 q 118 183 121 170 q 129 168 144 174 q 159 179 178 189 q 185 221 194 260 q 203 300 214 342 q 224 385 237 427 q 250 469 266 506 q 283 543 302 572 q 322 600 346 616 q 355 621 366 624 q 377 627 387 626 q 397 624 404 618 q 412 611 412 599 q 413 596 408 589 q 404 582 394 580 q 372 575 354 554 q 336 533 320 502 q 305 471 293 433 q 281 395 271 358 q 261 320 253 286 q 245 251 240 226 q 280 252 317 274 q 354 297 374 301 z m 118 -12 q 133 27 146 70 q 159 113 170 158 q 157 153 146 150 q 135 146 126 145 q 131 107 128 66 q 125 25 118 -12 z"},"`":{"x_min":0,"x_max":296,"ha":296,"o":"m 168 362 q 168 356 162 352 q 156 347 150 346 q 143 345 137 347 q 131 349 131 355 q 131 372 128 388 q 126 405 127 422 q 127 428 134 433 q 142 438 150 440 q 159 441 166 439 q 174 437 174 429 q 173 412 170 396 q 168 379 168 362 z"},"k":{"x_min":0,"x_max":348,"ha":348,"o":"m 348 206 q 350 209 354 208 q 359 208 362 205 q 366 202 368 198 q 371 194 368 190 q 353 170 328 138 q 304 107 276 76 q 247 45 218 23 q 189 1 167 1 q 150 1 138 10 q 127 20 119 34 q 111 48 105 64 q 99 80 94 93 q 86 92 78 91 q 71 90 63 90 q 51 90 38 95 q 26 100 21 112 q 9 81 -2 53 q -12 25 -21 -1 q -24 -8 -34 -10 q -44 -13 -54 -11 q -63 -9 -70 -1 q -76 7 -71 21 q -51 78 -24 148 q 4 217 43 309 q 79 393 110 461 q 141 529 164 574 q 172 589 180 598 q 188 607 208 608 q 222 608 234 599 q 245 590 245 568 q 245 544 228 506 q 210 469 187 430 q 164 390 139 354 q 114 319 99 299 l 71 234 q 99 260 132 278 q 164 295 194 295 q 217 295 232 283 q 247 271 247 248 q 247 225 236 203 q 226 181 209 162 q 192 142 171 126 q 150 111 130 103 q 133 95 137 83 q 141 71 146 60 q 151 48 158 40 q 166 32 176 32 q 190 32 214 53 q 238 74 264 102 q 289 131 312 160 q 336 189 348 206 z m 34 146 q 56 161 80 153 q 105 145 118 126 q 134 132 152 145 q 171 158 186 174 q 202 191 212 210 q 222 229 222 247 q 222 260 214 265 q 206 270 195 270 q 172 270 148 258 q 124 246 102 228 q 80 209 62 187 q 45 165 34 146 z m 218 558 q 205 534 189 500 q 173 465 154 423 q 162 437 172 454 q 182 471 192 489 q 201 507 208 525 q 215 543 218 558 z m 62 115 q 72 115 82 117 q 79 122 75 126 q 71 129 66 129 q 50 129 47 122 q 44 115 62 115 z"},"u":{"x_min":0,"x_max":363,"ha":363,"o":"m 363 206 q 366 210 370 210 q 375 209 379 206 q 383 203 384 198 q 386 194 383 190 q 368 170 342 138 q 316 105 286 74 q 255 43 223 20 q 191 -3 165 -3 q 130 -3 117 15 q 104 33 112 64 q 89 44 56 25 q 24 6 -5 6 q -24 7 -38 16 q -51 26 -54 46 q -56 59 -52 77 q -47 95 -38 115 q -30 135 -18 156 q -7 177 5 197 q -1 203 0 206 q 15 226 31 243 q 47 260 63 278 q 73 284 84 283 q 95 282 103 276 q 111 271 114 263 q 117 255 111 248 q 110 246 106 240 q 101 234 94 226 q 83 212 66 188 q 48 163 32 136 q 16 110 6 86 q -5 61 -2 46 q -1 40 6 40 q 17 40 32 47 q 46 54 60 64 q 74 73 86 84 q 98 94 106 101 q 125 119 145 140 q 168 178 193 210 q 218 243 241 275 q 251 281 262 280 q 273 279 281 274 q 289 269 292 261 q 295 253 289 245 q 284 238 276 227 q 268 216 259 204 q 250 192 242 180 q 233 169 227 161 q 214 143 202 124 q 190 105 180 88 q 171 71 166 58 q 160 44 162 36 q 163 32 168 32 q 190 32 218 52 q 247 73 275 102 q 303 130 326 160 q 350 189 363 206 z"},"]":{"x_min":0,"x_max":319,"ha":319,"o":"m 301 697 q 256 505 213 313 q 170 121 125 -72 l -18 -72 q -23 -72 -26 -68 q -28 -65 -28 -60 q -27 -56 -24 -52 q -22 -48 -17 -48 l 83 -48 l 248 678 l 159 679 q 151 679 151 687 q 151 695 161 695 q 172 695 194 696 q 217 696 240 696 q 263 697 281 697 q 299 697 301 697 z"},"U":{"x_min":0,"x_max":484,"ha":484,"o":"m 484 206 q 486 209 490 208 q 495 208 499 205 q 503 202 505 198 q 507 194 504 190 q 486 166 460 134 q 434 102 404 70 q 375 38 344 8 q 314 -21 287 -40 q 279 -46 266 -43 q 254 -40 253 -31 q 250 17 258 74 q 266 132 280 190 q 295 249 313 306 q 331 362 347 408 q 324 371 296 316 q 269 260 238 202 q 207 145 172 94 q 137 43 100 15 q 93 10 81 2 q 69 -5 56 -8 q 43 -12 31 -9 q 19 -6 13 11 q 12 79 26 158 q 39 237 62 318 q 84 399 112 478 q 139 558 165 627 q 170 639 180 642 q 189 644 198 640 q 207 637 213 631 q 219 625 218 621 q 196 556 171 480 q 146 405 124 328 q 102 250 86 173 q 70 96 67 28 q 93 40 118 68 q 144 96 168 133 q 192 170 215 213 q 238 256 259 298 q 280 339 300 376 q 319 413 337 438 q 344 448 354 468 q 364 489 376 514 q 387 539 400 566 q 412 592 423 614 q 434 635 444 649 q 453 663 460 663 q 466 664 473 661 q 480 658 486 652 q 491 647 492 639 q 494 631 490 622 q 473 589 454 542 q 434 495 414 440 q 395 386 376 327 q 358 268 344 211 q 329 154 319 102 q 309 49 306 8 q 330 29 356 55 q 381 81 404 108 q 428 135 448 160 q 469 186 484 206 z"},"o":{"x_min":0,"x_max":323,"ha":323,"o":"m 323 206 q 325 209 330 208 q 334 207 338 204 q 342 201 344 197 q 346 193 343 189 q 317 154 284 133 q 252 112 210 110 q 185 65 146 34 q 108 2 60 1 q 29 1 9 18 q -11 34 -20 60 q -28 86 -26 118 q -25 149 -14 178 q -3 207 17 230 q 37 252 66 260 q 72 262 76 256 q 95 271 114 278 q 134 285 152 286 q 175 286 194 276 q 214 265 226 246 q 237 226 238 198 q 238 171 223 137 q 253 142 278 160 q 302 178 323 206 z m 74 37 q 103 37 128 58 q 154 79 174 109 q 165 109 149 111 q 133 113 114 120 q 96 126 78 139 q 59 152 45 175 q 37 161 31 138 q 25 115 26 92 q 27 70 38 54 q 49 37 74 37 z m 188 135 q 203 166 205 190 q 207 214 201 230 q 195 245 182 253 q 168 261 152 261 q 135 261 118 253 q 100 245 84 229 q 85 215 81 212 q 77 208 68 202 q 76 179 92 166 q 108 152 126 144 q 145 137 162 135 q 179 133 188 135 z"},"N":{"x_min":0,"x_max":622,"ha":622,"o":"m 901 651 q 907 645 906 638 q 906 630 900 625 q 892 620 884 622 q 875 623 870 631 q 838 632 810 626 q 782 621 751 603 q 715 582 686 544 q 656 505 632 456 q 607 408 587 353 q 567 298 548 244 q 529 191 510 143 q 491 95 471 60 q 457 37 440 18 q 422 -1 394 -1 q 378 -1 364 8 q 351 18 349 39 q 344 103 346 168 q 348 232 352 296 q 357 360 362 424 q 368 487 370 551 q 337 507 306 444 q 275 380 244 310 q 238 297 226 270 q 213 242 196 208 q 179 173 158 136 q 138 99 118 68 q 98 38 78 18 q 59 -1 44 -1 q 35 -1 32 5 q 30 11 32 18 q 34 25 40 30 q 47 35 56 33 q 79 53 100 84 q 122 115 142 153 q 163 191 182 234 q 202 277 221 321 q 239 361 257 400 q 275 439 293 474 q 311 509 330 539 q 350 569 371 590 q 371 597 380 605 q 388 613 398 617 q 409 621 420 619 q 430 617 434 604 q 433 594 430 564 q 428 535 424 493 q 420 451 416 400 q 412 350 408 299 q 405 248 403 200 q 401 152 402 114 q 402 77 405 54 q 408 32 415 32 q 423 32 434 45 q 444 58 452 72 q 475 110 494 160 q 513 209 532 262 q 550 316 570 372 q 589 427 614 476 q 638 524 668 564 q 699 603 739 626 q 769 643 808 652 q 847 661 882 659 q 887 658 892 657 q 897 656 901 651 z"},"+":{"x_min":0,"x_max":343,"ha":343,"o":"m 235 200 q 241 200 243 196 q 245 191 244 186 q 242 180 238 176 q 234 172 228 172 l 157 175 l 132 115 q 129 109 124 108 q 118 106 113 107 q 108 108 105 112 q 102 115 104 120 l 124 176 l 64 178 q 58 178 56 184 q 53 190 54 196 q 56 203 60 208 q 65 213 72 213 l 136 208 l 161 274 q 164 280 170 282 q 177 284 184 282 q 190 281 194 277 q 198 273 195 267 l 169 205 l 235 200 z"},"G":{"x_min":0,"x_max":477,"ha":477,"o":"m 482 208 q 485 209 488 206 q 491 203 494 198 q 496 194 497 190 q 498 186 495 185 q 464 174 419 155 q 374 136 329 113 q 323 95 309 55 q 295 15 276 -34 q 257 -82 234 -134 q 211 -185 187 -227 q 163 -269 139 -296 q 115 -323 94 -323 q 78 -323 67 -307 q 56 -291 48 -270 q 41 -249 37 -228 q 33 -206 32 -195 q 26 -151 49 -105 q 72 -59 110 -17 q 148 25 193 60 q 238 96 277 120 q 295 171 310 218 q 325 265 336 301 q 347 337 353 360 q 359 382 358 385 q 364 402 374 401 q 385 400 393 392 q 398 392 402 394 q 406 395 410 393 l 410 392 q 410 386 405 364 q 400 343 391 310 q 382 277 369 235 q 356 193 341 147 q 380 167 418 182 q 455 198 482 208 z m 91 79 q 77 79 68 86 q 59 94 54 106 q 50 118 48 132 q 47 146 47 158 q 47 193 55 230 q 63 267 74 300 q 91 352 125 412 q 159 471 205 522 q 251 573 307 606 q 363 640 425 641 q 448 641 466 630 q 484 619 484 593 q 484 584 478 566 q 472 549 463 532 q 454 514 443 502 q 432 489 422 489 q 409 489 407 502 q 406 511 412 518 q 419 525 428 525 q 439 539 449 557 q 459 575 459 592 q 459 606 449 611 q 439 616 426 616 q 371 616 322 582 q 272 547 232 496 q 191 445 161 388 q 131 331 116 286 q 106 255 98 219 q 90 183 92 150 q 92 145 93 137 q 94 129 96 122 q 98 115 102 112 q 107 110 115 117 q 130 131 150 155 q 171 179 192 207 q 214 235 235 264 q 256 294 273 318 q 289 341 301 360 q 313 378 321 387 q 324 391 328 390 q 333 390 336 386 q 338 382 338 376 q 338 370 333 363 q 327 355 317 339 q 307 323 294 304 q 275 277 252 244 q 229 212 205 181 q 181 150 158 125 q 136 100 119 87 q 110 80 104 80 q 99 79 91 79 z m 90 -273 q 103 -268 120 -244 q 136 -220 154 -186 q 171 -152 188 -112 q 205 -73 220 -35 q 235 3 246 34 q 258 65 264 81 q 229 58 191 26 q 153 -6 122 -42 q 90 -79 71 -118 q 52 -156 57 -192 q 58 -197 60 -209 q 63 -221 68 -234 q 72 -247 78 -258 q 84 -269 90 -273 z"},"q":{"x_min":0,"x_max":374,"ha":374,"o":"m 374 206 q 376 209 380 208 q 385 208 389 205 q 393 202 395 198 q 397 194 394 190 q 344 124 292 78 q 239 32 167 -7 q 148 -51 131 -95 q 114 -139 101 -180 q 88 -221 80 -257 q 73 -293 73 -320 q 73 -329 74 -338 q 75 -346 77 -354 q 78 -360 72 -365 q 66 -370 58 -372 q 49 -374 40 -373 q 31 -372 27 -366 q 9 -320 6 -272 q 2 -225 12 -181 q 23 -137 46 -97 q 68 -57 102 -25 q 110 -3 120 18 q 129 40 138 61 q 109 35 76 18 q 43 0 11 -1 q -20 -1 -32 20 q -43 40 -45 67 q -47 103 -32 144 q -17 184 8 218 q 34 253 69 276 q 104 299 143 300 q 177 301 192 289 q 206 277 206 263 q 206 252 199 244 q 192 237 179 237 q 170 237 162 242 q 154 248 152 259 q 126 259 100 238 q 74 218 54 188 q 34 158 22 126 q 10 93 11 69 q 12 56 17 46 q 22 36 37 36 q 57 36 78 50 q 100 63 120 83 q 141 103 159 126 q 177 150 189 172 l 239 272 q 249 278 260 276 q 271 275 278 270 q 286 265 289 256 q 292 248 286 241 q 260 188 234 137 q 208 86 184 32 q 241 67 286 109 q 332 151 374 206 z m 33 -230 q 46 -175 69 -110 q 52 -138 44 -168 q 35 -198 33 -230 z"},"d":{"x_min":0,"x_max":385,"ha":385,"o":"m 357 594 q 366 600 378 599 q 389 598 398 593 q 408 588 413 580 q 418 571 414 564 q 409 544 392 502 q 375 460 352 406 q 330 353 305 294 q 280 236 260 184 q 239 133 226 94 q 212 54 213 40 q 235 48 260 68 q 284 88 307 112 q 330 137 350 162 q 371 187 385 206 q 387 209 392 208 q 396 208 400 205 q 404 202 406 198 q 408 194 405 190 q 394 175 368 143 q 343 111 313 79 q 283 47 252 23 q 222 -1 201 0 q 183 1 174 10 q 165 18 162 36 q 159 53 170 90 q 180 128 199 178 q 185 156 162 126 q 140 95 113 66 q 86 38 56 18 q 26 -2 -2 -2 q -14 -2 -22 4 q -31 10 -37 19 q -43 28 -46 39 q -49 50 -49 60 q -49 95 -31 142 q -13 189 16 231 q 46 273 85 302 q 124 331 166 331 q 193 331 204 322 q 215 314 215 303 q 215 294 210 286 q 204 279 196 276 q 189 272 180 273 q 172 274 165 282 q 135 280 106 253 q 77 226 54 190 q 32 155 18 118 q 4 80 4 57 q 4 47 8 40 q 11 34 22 34 q 40 34 62 53 q 85 72 107 97 q 129 122 148 147 q 166 172 174 185 q 206 236 236 294 q 265 352 289 408 q 313 463 330 512 q 348 561 357 594 z"},"1":{"x_min":0,"x_max":220,"ha":220,"o":"m 100 330 q 79 304 60 281 q 42 258 34 247 q 31 243 26 242 q 20 241 16 242 q 11 244 9 248 q 7 251 11 257 q 19 270 38 294 q 58 318 81 346 l 145 426 q 149 431 158 440 q 166 449 176 456 q 185 463 194 464 q 204 464 211 453 q 210 433 202 406 q 194 378 182 346 q 170 313 154 277 q 139 241 123 205 q 98 150 77 100 q 56 49 49 18 q 47 9 40 6 q 33 4 27 3 q 17 3 8 6 q -2 9 -3 23 q 0 41 8 64 q 16 87 26 113 q 37 139 50 168 q 62 197 75 226 q 93 266 110 306 q 127 345 139 378 z"},"5":{"x_min":0,"x_max":301,"ha":301,"o":"m 253 424 q 245 425 236 426 q 227 426 218 426 q 200 425 181 424 q 162 423 145 421 q 140 381 125 342 q 110 302 99 263 q 117 273 137 279 q 157 285 177 286 q 194 286 209 280 q 224 274 235 260 q 245 246 253 228 q 261 211 262 189 q 263 163 250 131 q 237 99 216 70 q 195 42 168 22 q 141 2 114 2 q 101 2 84 10 q 66 19 50 32 q 33 45 20 61 q 7 77 3 92 q 1 99 4 102 q 7 105 12 105 q 16 105 22 102 q 27 100 29 95 q 32 87 40 78 q 48 68 59 59 q 70 50 83 43 q 96 36 110 36 q 124 36 142 54 q 159 73 174 98 q 189 123 199 148 q 209 173 209 186 q 210 221 194 236 q 179 251 158 251 q 141 251 124 245 q 107 239 92 229 q 90 224 82 221 q 73 218 64 218 q 54 218 47 220 q 40 223 40 229 q 42 253 49 277 q 56 301 65 326 q 74 351 82 375 q 90 399 93 423 q 95 439 109 442 q 123 446 138 448 q 165 451 200 452 q 236 453 263 448 q 273 446 275 442 q 277 438 274 434 q 272 429 266 426 q 260 423 253 424 z"}}}
